<?xml version="1.0" encoding="utf-8"?>
<!-- Generator: Adobe Illustrator 18.1.1, SVG Export Plug-In . SVG Version: 6.00 Build 0)  -->
<svg version="1.1" id="Layer_1" xmlns="http://www.w3.org/2000/svg" xmlns:xlink="http://www.w3.org/1999/xlink" x="0px" y="0px"
	 viewBox="0 0 29.9 40" enable-background="new 0 0 29.9 40" xml:space="preserve">
<path fill="#603913" d="M26.2,40h3.8l-6.7-10c1.3-0.2,2.4-0.8,3.2-1.8c0.9-1,1.3-2.1,1.3-3.5V5.3c0-1.4-0.5-2.7-1.5-3.7
	c-1-1-2.3-1.5-3.8-1.5H7.6C6.1,0,4.8,0.5,3.8,1.5c-1,1-1.5,2.3-1.5,3.7v19.5c0,1.3,0.4,2.5,1.3,3.5c0.9,1,1.9,1.6,3.2,1.7L0,40h3.8
	l0.6-1h21.1L26.2,40z M23.9,26.8c-0.5,0.5-1.1,0.7-1.8,0.7c-0.7,0-1.2-0.2-1.7-0.7c-0.5-0.5-0.7-1.1-0.7-1.8c0-0.7,0.2-1.2,0.7-1.7
	c0.5-0.5,1-0.7,1.7-0.7c0.7,0,1.3,0.2,1.8,0.7c0.5,0.5,0.7,1.1,0.7,1.7C24.6,25.7,24.4,26.3,23.9,26.8z M5.5,5.7
	C5.5,5,5.7,4.4,6.2,4C6.6,3.5,7.2,3.3,8,3.3h14c0.7,0,1.3,0.2,1.8,0.7c0.5,0.5,0.7,1.1,0.7,1.8V12c0,0.7-0.2,1.3-0.7,1.8
	c-0.5,0.5-1.1,0.7-1.8,0.7H8c-0.7,0-1.3-0.2-1.8-0.7c-0.5-0.5-0.7-1.1-0.7-1.8V5.7z M6,26.8c-0.5-0.5-0.7-1.1-0.7-1.8
	c0-0.7,0.2-1.2,0.7-1.7c0.5-0.5,1.1-0.7,1.8-0.7c0.7,0,1.2,0.2,1.7,0.7c0.5,0.5,0.7,1.1,0.7,1.7c0,0.7-0.2,1.3-0.7,1.8
	c-0.5,0.5-1,0.7-1.7,0.7C7.1,27.5,6.5,27.2,6,26.8z M6.6,35.8l1.8-2.6h13.2l1.8,2.6H6.6z"/>
</svg>
