<?xml version="1.0" encoding="utf-8"?>
<!-- Generator: Adobe Illustrator 18.1.1, SVG Export Plug-In . SVG Version: 6.00 Build 0)  -->
<svg version="1.1" id="Layer_1" xmlns="http://www.w3.org/2000/svg" xmlns:xlink="http://www.w3.org/1999/xlink" x="0px" y="0px"
	 viewBox="0 0 1920 955.4" enable-background="new 0 0 1920 955.4" xml:space="preserve">
<g>
	<defs>
		<rect id="SVGID_1_" x="0" y="0" width="1920" height="955.4"/>
	</defs>
	<clipPath id="SVGID_2_">
		<use xlink:href="#SVGID_1_"  overflow="visible"/>
	</clipPath>
	<g clip-path="url(#SVGID_2_)">
		<defs>
			<polygon id="SVGID_3_" points="1020.2,0 0,0.6 0,955.4 1920,955.4 1920,911.4 1920,0 			"/>
		</defs>
		<clipPath id="SVGID_4_">
			<use xlink:href="#SVGID_3_"  overflow="visible"/>
		</clipPath>
		<g opacity="5.000310e-002" clip-path="url(#SVGID_4_)">
			<g>
				<defs>
					<rect id="SVGID_5_" x="-114.9" y="28" width="915" height="928.9"/>
				</defs>
				<clipPath id="SVGID_6_">
					<use xlink:href="#SVGID_5_"  overflow="visible"/>
				</clipPath>
				<path clip-path="url(#SVGID_6_)" fill="#808080" d="M87.8,135.3L89.6,28h2.8l-1.8,107.4c-0.5-0.1-1-0.1-1.5-0.1
					C88.6,135.2,88.2,135.3,87.8,135.3"/>
				<path clip-path="url(#SVGID_6_)" fill="#808080" d="M-15.5,73.2c0.3-0.9,0.5-1.9,0.5-2.8c0-0.1,0-0.2,0-0.3l97.9,67.9
					c-0.6,0.7-1.2,1.5-1.6,2.3L-15.5,73.2z"/>
				<path clip-path="url(#SVGID_6_)" fill="#808080" d="M25.8,28h4.6l-47.5,36.7c-0.6-0.7-1.4-1.4-2.2-1.9L25.8,28z"/>
				<path clip-path="url(#SVGID_6_)" fill="#808080" d="M-16.9,208.5l98.1-61.2c0.4,0.9,0.9,1.7,1.5,2.4l-98.1,61.3
					C-15.9,210-16.4,209.2-16.9,208.5"/>
				<path clip-path="url(#SVGID_6_)" fill="#808080" d="M-50.8,339.3l52.8,246c-0.1,0-0.2,0-0.3,0c-0.9,0-1.7,0.1-2.5,0.4
					l-52.5-244.6L-85,457.7c-0.9-0.3-1.8-0.5-2.8-0.6l31.9-117.4c0.6,0.1,1.2,0.2,1.8,0.2C-52.8,339.9-51.7,339.7-50.8,339.3"/>
				<path clip-path="url(#SVGID_6_)" fill="#808080" d="M44.5,566.6c0.4,0.9,0.8,1.7,1.4,2.4L9.9,591.1c-0.3-0.9-0.8-1.8-1.3-2.5
					L44.5,566.6z"/>
				<path clip-path="url(#SVGID_6_)" fill="#808080" d="M729.5,88.1c0.4,0.9,1,1.7,1.6,2.3L701,114.7c-0.4-0.9-0.9-1.7-1.6-2.4
					L729.5,88.1z"/>
				<path clip-path="url(#SVGID_6_)" fill="#808080" d="M686,123.2c0.5,0.8,1.2,1.5,1.9,2.1l-83.8,67.6c-0.5-0.8-1.1-1.6-1.8-2.2
					L686,123.2z"/>
				<path clip-path="url(#SVGID_6_)" fill="#808080" d="M742.6,77.5l57.5-46.4v3.6l-55.6,44.9C744,78.8,743.4,78.1,742.6,77.5"/>
				<path clip-path="url(#SVGID_6_)" fill="#808080" d="M404.9,28h11.2l23.6,6.2c-0.6,0.7-1.1,1.6-1.5,2.5L404.9,28z"/>
				<path clip-path="url(#SVGID_6_)" fill="#808080" d="M344.5,39.1l-19.4-11h5.7l15.7,8.9C345.7,37.5,345,38.2,344.5,39.1"/>
				<path clip-path="url(#SVGID_6_)" fill="#808080" d="M185.6,79.8l-49-51.8h3.9l47.2,49.8C186.8,78.4,186.2,79,185.6,79.8"/>
				<path clip-path="url(#SVGID_6_)" fill="#808080" d="M219,28h3.1l-24.6,49.9c-0.8-0.6-1.6-1-2.5-1.3L219,28z"/>
				<path clip-path="url(#SVGID_6_)" fill="#808080" d="M800.1,130.8v3.6l-57.3-43.4c0.7-0.6,1.3-1.4,1.8-2.2L800.1,130.8z"/>
				<path clip-path="url(#SVGID_6_)" fill="#808080" d="M605.1,195.4l195-5.6v2.8l-194.9,5.6c0.1-0.4,0.1-0.8,0.1-1.2
					C605.3,196.5,605.2,196,605.1,195.4"/>
				<path clip-path="url(#SVGID_6_)" fill="#808080" d="M729.1,87.1L595,109.2l90.3,5.8c-0.4,0.9-0.6,1.8-0.6,2.8l-94.7-6
					c-0.2-1.6-0.9-3.1-1.8-4.3L722,85.4L603.9,66.6c0.6-0.8,1-1.7,1.2-2.7l123.5,19.6c0,0.2,0,0.5,0,0.8
					C728.6,85.3,728.8,86.2,729.1,87.1"/>
				<path clip-path="url(#SVGID_6_)" fill="#808080" d="M97.2,141c-0.3-0.9-0.8-1.7-1.4-2.5L184.4,88c0.3,0.9,0.8,1.7,1.4,2.5
					L97.2,141z"/>
				<path clip-path="url(#SVGID_6_)" fill="#808080" d="M26.4,242.4c0.6-0.8,1-1.6,1.3-2.5l34.8,19.1c-0.6,0.7-1,1.6-1.3,2.5
					L26.4,242.4z"/>
				<path clip-path="url(#SVGID_6_)" fill="#808080" d="M11.4,234.2l-27.9-15.4c0.5-0.8,0.9-1.7,1.2-2.6l28.1,15.5
					C12.2,232.5,11.7,233.3,11.4,234.2"/>
				<path clip-path="url(#SVGID_6_)" fill="#808080" d="M-20.9,222.2l-26.8,98.5l60.1-78.6c0.5,0.8,1.2,1.5,2,2.1l-61.9,81.1
					c-1-1.1-2.2-1.9-3.6-2.3l27.3-100.2c0.1,0,0.2,0,0.3,0C-22.7,222.7-21.8,222.5-20.9,222.2"/>
				<path clip-path="url(#SVGID_6_)" fill="#808080" d="M22.4,229l60.4-79.1c0.6,0.7,1.4,1.3,2.2,1.8l-60.1,78.7
					C24.1,229.8,23.3,229.3,22.4,229"/>
				<path clip-path="url(#SVGID_6_)" fill="#808080" d="M303.6,188.5L197.9,91.8c0.7-0.6,1.4-1.3,1.9-2.1l105.5,96.4
					C304.6,186.8,304,187.6,303.6,188.5"/>
				<path clip-path="url(#SVGID_6_)" fill="#808080" d="M359.4,47.6c0.4-0.9,0.6-1.8,0.7-2.9l91.6,52.1c-0.6,0.7-1,1.6-1.4,2.5
					L359.4,47.6z"/>
				<path clip-path="url(#SVGID_6_)" fill="#808080" d="M201.5,84.2L450.2,100c-0.2,0.7-0.3,1.5-0.3,2.3c0,0.2,0,0.4,0,0.6L200.9,87
					c0.1-0.6,0.2-1.3,0.2-2c0-1.2-0.3-2.4-0.7-3.5L343,44.8c0.1,1,0.3,1.9,0.7,2.8L201.5,84.2z"/>
				<path clip-path="url(#SVGID_6_)" fill="#808080" d="M318.4,186.8l132.4-80.7c0.4,0.9,1,1.6,1.6,2.3l-132.8,80.9
					C319.4,188.4,318.9,187.6,318.4,186.8"/>
				<path clip-path="url(#SVGID_6_)" fill="#808080" d="M588.8,193.4l-124.1-85.2c0.6-0.7,1.2-1.5,1.6-2.4l124.1,85.2
					C589.8,191.8,589.2,192.6,588.8,193.4"/>
				<path clip-path="url(#SVGID_6_)" fill="#808080" d="M448.7,48.2l9.8,45.3c-1,0-1.9,0.2-2.8,0.5l-9.8-45.4c0.1,0,0.2,0,0.3,0
					C447.1,48.6,447.9,48.5,448.7,48.2"/>
				<path clip-path="url(#SVGID_6_)" fill="#808080" d="M588.7,64.2L456,43.1l120.3,62.8c-1.6,1.2-2.7,2.9-3.3,4.8l-106.2-6.8
					c0.1-0.5,0.2-1.1,0.2-1.6c0-0.4,0-0.8-0.1-1.2l107.1,6.8l-120.9-63c1-1.4,1.6-3.1,1.6-5c0-1.7-0.5-3.4-1.4-4.7L470,28h7.2
					l-22,9.5l71.5-9.5h21.6l-92.2,12.2l132.2,21c0,0.1,0,0.2,0,0.4C588.3,62.5,588.4,63.4,588.7,64.2"/>
				<path clip-path="url(#SVGID_6_)" fill="#808080" d="M730,79.5L688.7,28h3.6l39.7,49.4C731.2,78,730.5,78.7,730,79.5"/>
				<path clip-path="url(#SVGID_6_)" fill="#808080" d="M440.9,28h2.9l1,3.2c-0.9,0.1-1.8,0.4-2.7,0.9L440.9,28z"/>
				<path clip-path="url(#SVGID_6_)" fill="#808080" d="M466.7,212.3L459.4,111c1-0.1,1.9-0.4,2.8-0.8l7.3,101.2
					C468.5,211.5,467.5,211.8,466.7,212.3"/>
				<path clip-path="url(#SVGID_6_)" fill="#808080" d="M477,316.1c-1,0.2-1.9,0.5-2.7,1l-6.4-89c0.9,0.3,1.8,0.5,2.8,0.6L477,316.1
					z"/>
				<path clip-path="url(#SVGID_6_)" fill="#808080" d="M800.1,291.1v3.1L603.8,202c0.5-0.8,0.9-1.7,1.2-2.6L800.1,291.1z"/>
				<path clip-path="url(#SVGID_6_)" fill="#808080" d="M800.1,454.3v4.6l-41.3,52.6c-0.6-0.7-1.4-1.3-2.2-1.8L800.1,454.3z"/>
				<path clip-path="url(#SVGID_6_)" fill="#808080" d="M476.4,213.3l111.7-16.4c0,0.1,0,0.1,0,0.2c0,0.9,0.1,1.8,0.4,2.6l-110,16.1
					C477.9,214.9,477.2,214,476.4,213.3"/>
				<path clip-path="url(#SVGID_6_)" fill="#808080" d="M655.4,265.7c-0.8,0.5-1.5,1.1-2.1,1.8L601,204.6c0.8-0.5,1.5-1.1,2.1-1.8
					L655.4,265.7z"/>
				<path clip-path="url(#SVGID_6_)" fill="#808080" d="M800.1,54.9V58l-54.4,24.8c-0.2-1-0.5-1.9-0.9-2.7L800.1,54.9z"/>
				<path clip-path="url(#SVGID_6_)" fill="#808080" d="M745.8,83.7l54.3,5.3v2.9l-54.6-5.3c0.2-0.7,0.3-1.5,0.3-2.2
					C745.8,84.1,745.8,83.9,745.8,83.7"/>
				<path clip-path="url(#SVGID_6_)" fill="#808080" d="M244.1,683.2c-0.4,0.8-0.8,1.7-0.9,2.7L7.6,600.5c0.7-0.7,1.4-1.5,1.8-2.4
					L244.1,683.2z"/>
				<path clip-path="url(#SVGID_6_)" fill="#808080" d="M309.3,200.5l-54,135.3c-0.6-0.8-1.4-1.5-2.2-2l53.7-134.4
					C307.6,199.9,308.4,200.3,309.3,200.5"/>
				<path clip-path="url(#SVGID_6_)" fill="#808080" d="M212.2,225.7L95.5,149.8c0.6-0.7,1.1-1.5,1.5-2.4l116.7,75.9
					C213.1,224,212.6,224.8,212.2,225.7"/>
				<path clip-path="url(#SVGID_6_)" fill="#808080" d="M62.1,269.2l-107.9,59.1c-0.3-0.9-0.8-1.8-1.3-2.5l108.1-59.2
					C61.2,267.6,61.6,268.5,62.1,269.2"/>
				<path clip-path="url(#SVGID_6_)" fill="#808080" d="M68.7,273.1l-32,104.3c-0.8-0.4-1.7-0.7-2.7-0.8l31.9-104.1
					C66.8,272.8,67.7,273,68.7,273.1"/>
				<path clip-path="url(#SVGID_6_)" d="M11.4,234.2c0.3-0.9,0.8-1.7,1.4-2.5c1.6-2,4-3.3,6.7-3.3c1,0,2,0.2,2.9,0.5
					c0.9,0.3,1.7,0.8,2.5,1.4c2,1.6,3.3,4.1,3.3,6.8c0,0.9-0.2,1.9-0.4,2.7c-0.3,0.9-0.7,1.8-1.3,2.5c-1.6,2.1-4.1,3.5-6.9,3.5
					c-1.9,0-3.7-0.7-5.2-1.8c-0.8-0.6-1.4-1.3-2-2.1c-0.9-1.4-1.5-3.1-1.5-4.9C10.9,236.2,11.1,235.2,11.4,234.2"/>
				<path clip-path="url(#SVGID_6_)" d="M251.6,678.7c4.8,0,8.6,3.9,8.6,8.7c0,4.8-3.9,8.7-8.6,8.7c-4.8,0-8.6-3.9-8.6-8.7
					c0-0.5,0.1-1.1,0.1-1.6c0.2-1,0.5-1.9,0.9-2.7C245.6,680.5,248.4,678.7,251.6,678.7"/>
				<path clip-path="url(#SVGID_6_)" d="M200.9,87c-0.2,1-0.6,1.9-1.1,2.7c-0.5,0.8-1.1,1.5-1.9,2.1c-1.5,1.2-3.3,1.9-5.4,1.9
					c-2.7,0-5.1-1.3-6.7-3.3c-0.6-0.7-1-1.6-1.4-2.5c-0.3-0.9-0.5-1.9-0.5-3c0-2,0.6-3.8,1.7-5.2c0.6-0.8,1.2-1.4,2-2
					c1.4-1,3.1-1.5,4.9-1.5c0.9,0,1.7,0.1,2.5,0.4c0.9,0.3,1.7,0.7,2.5,1.3c1.2,0.9,2.2,2.1,2.8,3.6c0.5,1.1,0.7,2.3,0.7,3.5
					C201.1,85.7,201,86.3,200.9,87"/>
				<path clip-path="url(#SVGID_6_)" d="M458.5,93.5c4.3,0,7.9,3.3,8.5,7.5c0.1,0.4,0.1,0.8,0.1,1.2c0,0.6-0.1,1.1-0.2,1.6
					c-0.1,0.7-0.3,1.3-0.6,1.9c-0.4,0.9-0.9,1.7-1.6,2.4c-0.7,0.8-1.6,1.5-2.7,2c-0.9,0.4-1.8,0.7-2.8,0.8c-0.3,0-0.6,0-0.9,0
					c-2.4,0-4.5-1-6.1-2.5c-0.7-0.7-1.2-1.5-1.6-2.3c-0.5-1-0.8-2.1-0.9-3.3c0-0.2,0-0.4,0-0.6c0-0.8,0.1-1.5,0.3-2.3
					c0.1-0.2,0.1-0.5,0.2-0.7c0.3-0.9,0.8-1.7,1.4-2.5c1-1.3,2.4-2.3,3.9-2.8C456.6,93.7,457.5,93.5,458.5,93.5
					C458.5,93.5,458.5,93.5,458.5,93.5"/>
				<path clip-path="url(#SVGID_6_)" d="M351.6,52.7c-3.5,0-6.6-2.2-7.9-5.2c-0.4-0.9-0.6-1.8-0.7-2.8c0-0.2,0-0.5,0-0.7
					c0-1.8,0.6-3.5,1.5-5c0.6-0.8,1.2-1.5,2-2.1c1.4-1,3.2-1.7,5-1.7c4.8,0,8.6,3.9,8.6,8.7c0,0.2,0,0.5,0,0.7c-0.1,1-0.3,2-0.7,2.9
					C358.1,50.6,355.1,52.7,351.6,52.7"/>
				<path clip-path="url(#SVGID_6_)" d="M686,123.2c-0.9-1.4-1.4-3-1.4-4.8c0-0.2,0-0.4,0-0.6c0.1-1,0.3-1.9,0.6-2.8
					c1.3-3.2,4.4-5.4,7.9-5.4c2.5,0,4.7,1.1,6.2,2.7c0.6,0.7,1.2,1.5,1.6,2.4c0.5,1.1,0.8,2.3,0.8,3.6c0,4.8-3.9,8.7-8.6,8.7
					c-2,0-3.8-0.7-5.3-1.8C687.2,124.7,686.6,124,686,123.2"/>
				<path clip-path="url(#SVGID_6_)" d="M478.4,316c4.8,0,8.6,3.9,8.6,8.7c0,4.8-3.9,8.7-8.6,8.7c-4.8,0-8.6-3.9-8.6-8.7
					c0-3.3,1.8-6.2,4.4-7.6c0.8-0.5,1.8-0.8,2.7-1C477.5,316.1,477.9,316,478.4,316"/>
				<path clip-path="url(#SVGID_6_)" d="M659.7,264.4c4.8,0,8.6,3.9,8.6,8.7c0,4.8-3.9,8.7-8.6,8.7c-4.8,0-8.6-3.9-8.6-8.7
					c0-2.2,0.8-4.1,2.1-5.7c0.6-0.7,1.3-1.3,2.1-1.8C656.6,264.9,658.1,264.4,659.7,264.4"/>
				<path clip-path="url(#SVGID_6_)" d="M752.4,526.1c-4.8,0-8.6-3.9-8.6-8.7c0-4.8,3.9-8.7,8.6-8.7c1.5,0,3,0.4,4.2,1.1
					c0.8,0.5,1.6,1.1,2.2,1.8c1.4,1.5,2.2,3.6,2.2,5.8C761,522.2,757.2,526.1,752.4,526.1"/>
				<path clip-path="url(#SVGID_6_)" fill="#808080" d="M584.7,121l11.9,67.4c-1,0-1.9,0.2-2.8,0.5l-11.8-67.2
					C582.9,121.6,583.8,121.4,584.7,121"/>
				<path clip-path="url(#SVGID_6_)" d="M588.1,196.9c0-1.2,0.3-2.4,0.8-3.5c0.4-0.9,0.9-1.7,1.6-2.4c0.9-1,2.1-1.8,3.4-2.2
					c0.9-0.3,1.8-0.5,2.8-0.5c0,0,0.1,0,0.1,0c2.2,0,4.2,0.9,5.8,2.3c0.7,0.6,1.3,1.4,1.7,2.2c0.4,0.8,0.8,1.7,0.9,2.6
					c0.1,0.5,0.2,1.1,0.2,1.7c0,0.4,0,0.8-0.1,1.2c-0.1,0.4-0.1,0.8-0.2,1.1c-0.3,0.9-0.6,1.8-1.2,2.6c-0.2,0.3-0.4,0.5-0.6,0.8
					c-0.6,0.7-1.3,1.3-2.1,1.8c-1.3,0.8-2.8,1.2-4.4,1.2c-3.8,0-7.1-2.6-8.2-6.1c-0.3-0.8-0.4-1.7-0.4-2.6
					C588,197,588.1,197,588.1,196.9"/>
				<path clip-path="url(#SVGID_6_)" d="M453.3,44.9c-1.1,1.6-2.7,2.8-4.6,3.4c-0.8,0.2-1.6,0.4-2.5,0.4c-0.1,0-0.2,0-0.3,0
					c-4.6-0.2-8.3-4-8.3-8.7c0-1.1,0.2-2.2,0.6-3.1c0.4-0.9,0.9-1.8,1.5-2.5c0.7-0.8,1.6-1.5,2.5-2.1c0.8-0.4,1.7-0.7,2.7-0.9
					c0.4-0.1,0.9-0.1,1.3-0.1c3,0,5.7,1.6,7.2,4c0.9,1.4,1.4,3,1.4,4.7C454.8,41.7,454.2,43.4,453.3,44.9"/>
				<path clip-path="url(#SVGID_6_)" d="M745.7,82.8c0.1,0.3,0.1,0.6,0.1,0.9c0,0.2,0,0.4,0,0.6c0,0.8-0.1,1.5-0.3,2.2
					c-0.2,0.8-0.5,1.6-0.9,2.2c-0.5,0.8-1.1,1.6-1.8,2.2c-1.5,1.3-3.4,2.1-5.6,2.1c-2.4,0-4.5-1-6.1-2.6c-0.7-0.7-1.2-1.5-1.6-2.3
					c-0.2-0.3-0.3-0.7-0.4-1c-0.3-0.9-0.5-1.8-0.5-2.8c0-0.3,0-0.5,0-0.8c0.1-1.5,0.6-2.9,1.4-4c0.5-0.8,1.2-1.5,1.9-2.1
					c1.5-1.1,3.3-1.8,5.3-1.8c2.1,0,3.9,0.7,5.4,2c0.7,0.6,1.4,1.3,1.9,2.1c0.1,0.1,0.2,0.3,0.3,0.4
					C745.2,80.9,745.5,81.8,745.7,82.8"/>
				<path clip-path="url(#SVGID_6_)" d="M584.7,121c-0.9,0.4-1.8,0.6-2.7,0.6c-0.2,0-0.3,0-0.5,0c-4.8,0-8.6-3.9-8.6-8.7
					c0-0.8,0.1-1.5,0.3-2.2c0.5-2,1.7-3.7,3.3-4.8c1.4-1,3.2-1.7,5-1.7c2.7,0,5.1,1.3,6.7,3.3c1,1.2,1.6,2.7,1.8,4.3
					c0.1,0.4,0.1,0.8,0.1,1.2C590,116.6,587.8,119.7,584.7,121"/>
				<path clip-path="url(#SVGID_6_)" fill="#808080" d="M644.5,28h4.9l-44.3,31c-0.3-0.9-0.7-1.8-1.3-2.6L644.5,28z"/>
				<path clip-path="url(#SVGID_6_)" d="M596.9,70.3c-3.9,0-7.1-2.6-8.2-6.2c-0.2-0.8-0.4-1.7-0.4-2.6c0-0.1,0-0.2,0-0.4
					c0.2-4.7,4-8.4,8.6-8.4c2.8,0,5.3,1.4,6.9,3.6c0.6,0.8,1,1.6,1.3,2.6c0.3,0.8,0.4,1.7,0.4,2.6c0,0.8-0.1,1.6-0.3,2.3
					c-0.3,1-0.7,1.9-1.2,2.7C602.4,68.9,599.8,70.3,596.9,70.3"/>
				<path clip-path="url(#SVGID_6_)" fill="#808080" d="M3.3,602.6l1.8,131.4c-0.4-0.1-0.8-0.1-1.3-0.1c-0.5,0-1,0.1-1.5,0.1
					L0.5,602.6c0.4,0.1,0.8,0.1,1.3,0.1C2.3,602.8,2.8,602.7,3.3,602.6"/>
				<path clip-path="url(#SVGID_6_)" fill="#808080" d="M46.5,816.3c0,1,0.3,2,0.6,2.8L1.6,840.6c-0.3-0.9-0.7-1.8-1.2-2.6
					L46.5,816.3z"/>
				<path clip-path="url(#SVGID_6_)" d="M46.4,815.9c0-4.8,3.9-8.7,8.6-8.7s8.6,3.9,8.6,8.7c0,4.8-3.9,8.7-8.6,8.7
					c-3.6,0-6.7-2.3-8-5.4c-0.4-0.9-0.6-1.8-0.6-2.8C46.4,816.2,46.4,816,46.4,815.9"/>
				<path clip-path="url(#SVGID_6_)" d="M5.1,734.1c4.1,0.6,7.3,4.2,7.3,8.6c0,4.8-3.9,8.7-8.6,8.7c-2.2,0-4.2-0.8-5.7-2.2
					c-0.7-0.6-1.3-1.4-1.8-2.2c-0.7-1.3-1.1-2.8-1.1-4.3c0-0.7,0.1-1.4,0.2-2c0.2-0.9,0.6-1.8,1.1-2.6c1.3-2,3.3-3.5,5.8-3.9
					c0.5-0.1,1-0.1,1.5-0.1C4.2,733.9,4.7,734,5.1,734.1"/>
				<path clip-path="url(#SVGID_6_)" d="M-15.3,842.9c0-4.8,3.9-8.7,8.6-8.7c3,0,5.6,1.5,7.1,3.8c0.5,0.8,0.9,1.7,1.2,2.6
					c0.2,0.7,0.3,1.5,0.3,2.3c0,4.8-3.9,8.7-8.6,8.7c-0.1,0-0.2,0-0.2,0c-1,0-1.9-0.2-2.7-0.5C-13,849.9-15.3,846.7-15.3,842.9"/>
				<path clip-path="url(#SVGID_6_)" fill="#808080" d="M320.1,192.4l142.7,24.7c-0.3,0.9-0.5,1.8-0.5,2.8l-142.8-24.7
					C319.8,194.3,320,193.4,320.1,192.4"/>
				<path clip-path="url(#SVGID_6_)" fill="#808080" d="M302.9,192c0,0.3,0,0.5,0,0.8L97.1,147.2c0.3-0.9,0.5-1.8,0.6-2.8
					l205.5,45.5C303,190.6,302.9,191.3,302.9,192"/>
				<path clip-path="url(#SVGID_6_)" fill="#808080" d="M77.8,263.9c-0.1-1-0.3-1.9-0.6-2.8l134.3-31.4c0.1,1,0.3,1.9,0.6,2.8
					L77.8,263.9z"/>
				<path clip-path="url(#SVGID_6_)" fill="#808080" d="M76,269.8l165.8,66c-0.6,0.7-1,1.6-1.4,2.5L73.7,271.9
					C74.6,271.3,75.4,270.6,76,269.8"/>
				<path clip-path="url(#SVGID_6_)" fill="#808080" d="M26,379.9l-73.3-43.1c0.6-0.7,1.1-1.6,1.4-2.5l74.1,43.6
					C27.4,378.4,26.6,379.1,26,379.9"/>
				<path clip-path="url(#SVGID_6_)" fill="#808080" d="M32.8,394c0.8,0,1.6-0.1,2.3-0.3l17.8,161c-0.1,0-0.3,0-0.4,0
					c-0.8,0-1.6,0.1-2.3,0.3L32.7,396.8L7.2,587.2c-0.8-0.6-1.7-1.1-2.6-1.5l25.7-192.2C31.1,393.8,31.9,394,32.8,394"/>
				<path clip-path="url(#SVGID_6_)" fill="#808080" d="M152.2,487.3c0.4,0.9,1,1.6,1.6,2.3l-93.6,69.8c-0.4-0.9-1-1.6-1.7-2.3
					L152.2,487.3z"/>
				<path clip-path="url(#SVGID_6_)" fill="#808080" d="M223,237.3l27.6,95.4c-0.7-0.2-1.4-0.3-2.1-0.3c-0.3,0-0.6,0-0.9,0
					l-27.4-94.6C221.2,237.8,222.2,237.6,223,237.3"/>
				<path clip-path="url(#SVGID_6_)" fill="#808080" d="M257,339.6l205.8-116.7c0.3,0.9,0.8,1.7,1.4,2.5l-206.3,117l-0.7-1.2
					C257.1,340.6,257.1,340.1,257,339.6"/>
				<path clip-path="url(#SVGID_6_)" fill="#808080" d="M240,341.4c0,1,0.2,1.9,0.5,2.8l-199.3,39c-0.2-1-0.6-1.9-1.1-2.7L240,341.4
					z"/>
				<path clip-path="url(#SVGID_6_)" fill="#808080" d="M38.9,391.4c0.7-0.7,1.2-1.5,1.6-2.3L157.8,475c-1.1,0.3-2,0.7-2.9,1.4
					L38.9,391.4z"/>
				<path clip-path="url(#SVGID_6_)" fill="#808080" d="M164.7,476.2l17-35.6c0.8,0.5,1.6,1,2.5,1.2l-17.4,36.5
					C166.2,477.4,165.5,476.7,164.7,476.2"/>
				<path clip-path="url(#SVGID_6_)" fill="#808080" d="M266.3,428c-0.9,0.4-1.8,1-2.5,1.7l-16.6-79.5l1.4-0.3c0.5,0,0.9,0,1.4-0.1
					L266.3,428z"/>
				<path clip-path="url(#SVGID_6_)" d="M220.1,237.9c-3.6,0-6.7-2.2-8-5.4c-0.4-0.9-0.6-1.8-0.6-2.8c0-0.2,0-0.4,0-0.5
					c0-1.2,0.3-2.4,0.7-3.4c0.4-0.9,0.9-1.7,1.5-2.4c1.6-1.8,3.8-2.9,6.4-2.9c4.8,0,8.6,3.9,8.6,8.7c0,3.8-2.4,7-5.7,8.2
					c-0.9,0.3-1.8,0.5-2.8,0.5C220.2,237.8,220.2,237.9,220.1,237.9"/>
				<path clip-path="url(#SVGID_6_)" d="M77.8,264.4c0,2-0.7,3.9-1.8,5.4c-0.6,0.8-1.4,1.6-2.3,2.1c-1.3,0.8-2.8,1.3-4.4,1.3
					c-0.2,0-0.4,0-0.6,0c-1-0.1-1.9-0.3-2.7-0.6c-1.6-0.7-2.9-1.8-3.9-3.2c-0.5-0.8-0.9-1.7-1.1-2.6c-0.2-0.7-0.3-1.5-0.3-2.2
					c0-1,0.2-2,0.5-2.8c0.3-0.9,0.8-1.8,1.3-2.5c1.6-2.1,4-3.4,6.8-3.4c3.6,0,6.7,2.2,8,5.4c0.3,0.9,0.6,1.8,0.6,2.8
					C77.8,264,77.8,264.2,77.8,264.4"/>
				<path clip-path="url(#SVGID_6_)" d="M35.1,393.6c-0.7,0.2-1.5,0.3-2.3,0.3c-0.9,0-1.7-0.1-2.5-0.4c-3.5-1.1-6.1-4.4-6.1-8.3
					c0-2,0.7-3.9,1.8-5.4c0.6-0.8,1.3-1.5,2.2-2c1.3-0.9,2.9-1.4,4.6-1.4c0.4,0,0.8,0,1.2,0.1c1,0.1,1.9,0.4,2.7,0.8
					c1.4,0.7,2.6,1.8,3.4,3.1c0.5,0.8,0.9,1.7,1.1,2.7c0.1,0.6,0.2,1.3,0.2,2c0,1.4-0.3,2.7-0.9,3.9c-0.4,0.9-1,1.6-1.6,2.3
					C37.8,392.5,36.6,393.2,35.1,393.6"/>
				<path clip-path="url(#SVGID_6_)" d="M239.9,341.2c0-1,0.2-2,0.5-2.9c0.3-0.9,0.8-1.8,1.4-2.5c1.4-1.8,3.5-3,5.9-3.3
					c0.3,0,0.6,0,0.9,0c0.7,0,1.4,0.1,2.1,0.3c0.9,0.2,1.7,0.6,2.5,1.1c0.9,0.5,1.6,1.2,2.2,2c0.8,1.1,1.4,2.4,1.7,3.8
					c0.1,0.5,0.1,1,0.1,1.5c0,4.3-3.1,7.9-7.2,8.6c-0.5,0.1-0.9,0.1-1.4,0.1h0c-3.7,0-6.8-2.4-8.1-5.7c-0.3-0.9-0.5-1.8-0.5-2.8
					C240,341.3,239.9,341.2,239.9,341.2"/>
				<path clip-path="url(#SVGID_6_)" d="M311.5,200.8c-0.7,0-1.4-0.1-2.1-0.3c-0.9-0.2-1.8-0.6-2.6-1.1c-2.2-1.4-3.6-3.8-3.9-6.5
					c0-0.3,0-0.5,0-0.8c0-0.7,0.1-1.4,0.3-2.1c0.1-0.5,0.3-1,0.5-1.5c0.4-0.9,0.9-1.7,1.6-2.4c1.6-1.7,3.8-2.8,6.3-2.8
					c2.8,0,5.3,1.4,6.9,3.5c0.6,0.8,1,1.6,1.3,2.5c0.3,0.8,0.4,1.8,0.4,2.7c0,0.1,0,0.2,0,0.4c0,1-0.2,1.9-0.6,2.8
					C318.2,198.5,315.1,200.8,311.5,200.8"/>
				<path clip-path="url(#SVGID_6_)" d="M462.3,220C462.3,219.9,462.3,219.9,462.3,220c0-1,0.2-2,0.5-2.8c0.7-2,2.1-3.8,4-4.8
					c0.8-0.5,1.8-0.8,2.7-1c0.5-0.1,0.9-0.1,1.4-0.1c2.1,0,4,0.8,5.5,2.1c0.8,0.7,1.5,1.6,2.1,2.6c0.6,1.2,1,2.6,1,4.1
					c0,4.8-3.9,8.7-8.6,8.7c-0.1,0-0.1,0-0.2,0c-1,0-2-0.2-2.8-0.6c-1.5-0.6-2.7-1.5-3.7-2.7c-0.6-0.7-1-1.6-1.4-2.5
					C462.5,222,462.3,221,462.3,220"/>
				<path clip-path="url(#SVGID_6_)" d="M97.7,144c0,0.2,0,0.3,0,0.4c0,1-0.3,1.9-0.6,2.8c0,0.1-0.1,0.2-0.1,0.2
					c-0.4,0.9-0.9,1.7-1.5,2.4c-1.6,1.8-3.8,2.9-6.4,2.9c-1.5,0-2.9-0.4-4.1-1.1c-0.8-0.5-1.6-1.1-2.2-1.8c-0.1-0.1-0.1-0.1-0.2-0.2
					c-0.6-0.7-1.1-1.5-1.5-2.4c-0.4-1-0.6-2.1-0.6-3.3c0-1.3,0.3-2.6,0.8-3.7c0.4-0.9,0.9-1.7,1.6-2.3c1.3-1.4,3-2.3,5-2.6
					c0.4-0.1,0.8-0.1,1.3-0.1c0.5,0,1,0.1,1.5,0.1c2.1,0.4,3.9,1.5,5.2,3.1c0.6,0.7,1,1.6,1.4,2.5C97.5,141.9,97.7,142.9,97.7,144"
					/>
				<path clip-path="url(#SVGID_6_)" d="M43.9,563.4c0-4,2.6-7.4,6.3-8.4c0.7-0.2,1.5-0.3,2.3-0.3c0.2,0,0.3,0,0.4,0
					c2.2,0.1,4.1,1,5.6,2.5c0.7,0.7,1.2,1.4,1.7,2.3c0.6,1.2,0.9,2.5,0.9,4c0,4.8-3.9,8.7-8.6,8.7c-2.6,0-5-1.2-6.5-3.1
					c-0.6-0.7-1.1-1.5-1.4-2.4C44.1,565.6,43.9,564.5,43.9,563.4"/>
				<path clip-path="url(#SVGID_6_)" d="M151.3,483.5c0-2.9,1.4-5.5,3.6-7.1c0.9-0.6,1.8-1.1,2.9-1.4c0.7-0.2,1.4-0.3,2.1-0.3
					c1.8,0,3.4,0.5,4.8,1.5c0.8,0.6,1.5,1.3,2.1,2.1c1.1,1.5,1.7,3.3,1.7,5.2c0,4.8-3.9,8.7-8.6,8.7c-2.4,0-4.5-1-6.1-2.6
					c-0.7-0.7-1.2-1.5-1.6-2.3C151.6,486.1,151.3,484.8,151.3,483.5"/>
				<path clip-path="url(#SVGID_6_)" d="M178,433.4c0-4.8,3.8-8.7,8.6-8.7c4.8,0,8.6,3.9,8.6,8.7c0,4.8-3.9,8.7-8.6,8.7
					c-0.8,0-1.7-0.1-2.4-0.4c-0.9-0.3-1.8-0.7-2.5-1.2C179.4,439,178,436.3,178,433.4"/>
				<path clip-path="url(#SVGID_6_)" d="M269.6,427.3c4.8,0,8.6,3.9,8.6,8.7c0,4.8-3.9,8.7-8.6,8.7c-4.8,0-8.6-3.9-8.6-8.7
					c0-2.5,1.1-4.8,2.8-6.4c0.7-0.7,1.6-1.3,2.5-1.7C267.3,427.6,268.4,427.3,269.6,427.3"/>
				<path clip-path="url(#SVGID_6_)" d="M-3.5,587.2c0.8-0.7,1.8-1.2,2.8-1.5c0.8-0.2,1.6-0.4,2.5-0.4c0.1,0,0.2,0,0.3,0
					c0.9,0,1.7,0.2,2.5,0.5c1,0.3,1.9,0.8,2.6,1.5c0.5,0.4,1,0.9,1.3,1.4c0.6,0.7,1,1.6,1.3,2.5c0.3,0.9,0.5,1.9,0.5,2.9
					c0,1.5-0.4,2.9-1,4.1c-0.5,0.9-1.1,1.7-1.8,2.4c-1.2,1.1-2.6,1.8-4.3,2.1c-0.5,0.1-1,0.1-1.5,0.1c-0.4,0-0.9,0-1.3-0.1
					c-2-0.3-3.7-1.3-5-2.7c-0.6-0.7-1.2-1.5-1.5-2.4c0-0.1-0.1-0.2-0.1-0.3c-0.4-0.9-0.6-1.9-0.6-3c0-0.1,0-0.2,0-0.3
					c0-1.7,0.5-3.3,1.4-4.7C-4.9,588.5-4.3,587.8-3.5,587.2"/>
			</g>
		</g>
	</g>
	
		<line clip-path="url(#SVGID_2_)" fill="none" stroke="#808080" stroke-width="2" stroke-miterlimit="10" x1="79" y1="21.4" x2="76.6" y2="162.1"/>
	<g clip-path="url(#SVGID_2_)">
		<defs>
			<polygon id="SVGID_7_" points="1020.2,0 0,0.6 0,955.4 1920,955.4 1920,911.4 1920,0 			"/>
		</defs>
		<clipPath id="SVGID_8_">
			<use xlink:href="#SVGID_7_"  overflow="visible"/>
		</clipPath>
		
			<line clip-path="url(#SVGID_8_)" fill="none" stroke="#808080" stroke-width="2" stroke-miterlimit="10" x1="76.6" y1="162.1" x2="-115.9" y2="28.6"/>
		
			<line clip-path="url(#SVGID_8_)" fill="none" stroke="#808080" stroke-width="2" stroke-miterlimit="10" x1="76.6" y1="28.9" x2="-14.4" y2="99.2"/>
		
			<line clip-path="url(#SVGID_8_)" fill="none" stroke="#808080" stroke-width="2" stroke-miterlimit="10" x1="76.6" y1="162.1" x2="-113.4" y2="280.6"/>
		
			<line clip-path="url(#SVGID_8_)" fill="none" stroke="#808080" stroke-width="2" stroke-miterlimit="10" x1="46.8" y1="504.5" x2="-113.4" y2="602.6"/>
	</g>
	
		<line clip-path="url(#SVGID_2_)" fill="none" stroke="#808080" stroke-width="2" stroke-miterlimit="10" x1="734.1" y1="9.3" x2="491.1" y2="205.4"/>
	
		<line clip-path="url(#SVGID_2_)" fill="none" stroke="#808080" stroke-width="2" stroke-miterlimit="10" x1="367.1" y1="74.7" x2="201.6" y2="31.5"/>
	
		<line clip-path="url(#SVGID_2_)" fill="none" stroke="#808080" stroke-width="2" stroke-miterlimit="10" x1="80.6" y1="28.9" x2="161" y2="113.9"/>
	
		<line clip-path="url(#SVGID_2_)" fill="none" stroke="#808080" stroke-width="2" stroke-miterlimit="10" x1="161" y1="113.9" x2="202.9" y2="28.9"/>
	
		<line clip-path="url(#SVGID_2_)" fill="none" stroke="#808080" stroke-width="2" stroke-miterlimit="10" x1="603.7" y1="112.3" x2="718" y2="198.9"/>
	
		<line clip-path="url(#SVGID_2_)" fill="none" stroke="#808080" stroke-width="2" stroke-miterlimit="10" x1="718" y1="198.9" x2="491.1" y2="205.4"/>
	
		<line clip-path="url(#SVGID_2_)" fill="none" stroke="#808080" stroke-width="2" stroke-miterlimit="10" x1="571.5" y1="140.1" x2="161" y2="113.9"/>
	
		<line clip-path="url(#SVGID_2_)" fill="none" stroke="#808080" stroke-width="2" stroke-miterlimit="10" x1="161" y1="113.9" x2="76.6" y2="162.1"/>
	<g clip-path="url(#SVGID_2_)">
		<defs>
			<polygon id="SVGID_9_" points="1020.2,0 0,0.6 0,955.4 1920,955.4 1920,911.4 1920,0 			"/>
		</defs>
		<clipPath id="SVGID_10_">
			<use xlink:href="#SVGID_9_"  overflow="visible"/>
		</clipPath>
		
			<line clip-path="url(#SVGID_10_)" fill="none" stroke="#808080" stroke-width="2" stroke-miterlimit="10" x1="-12.8" y1="220.1" x2="60.4" y2="260.4"/>
		
			<line clip-path="url(#SVGID_10_)" fill="none" stroke="#808080" stroke-width="2" stroke-miterlimit="10" x1="76.6" y1="162.1" x2="-40.2" y2="314.9"/>
	</g>
	
		<line clip-path="url(#SVGID_2_)" fill="none" stroke="#808080" stroke-width="2" stroke-miterlimit="10" x1="161" y1="113.9" x2="257.6" y2="202.2"/>
	
		<line clip-path="url(#SVGID_2_)" fill="none" stroke="#808080" stroke-width="2" stroke-miterlimit="10" x1="200.3" y1="26.8" x2="378.2" y2="128"/>
	
		<line clip-path="url(#SVGID_2_)" fill="none" stroke="#808080" stroke-width="2" stroke-miterlimit="10" x1="161" y1="113.9" x2="290.9" y2="80.4"/>
	
		<line clip-path="url(#SVGID_2_)" fill="none" stroke="#808080" stroke-width="2" stroke-miterlimit="10" x1="366.4" y1="77.7" x2="472.7" y2="32"/>
	
		<line clip-path="url(#SVGID_2_)" fill="none" stroke="#808080" stroke-width="2" stroke-miterlimit="10" x1="379.9" y1="127.6" x2="257.6" y2="202.2"/>
	
		<line clip-path="url(#SVGID_2_)" fill="none" stroke="#808080" stroke-width="2" stroke-miterlimit="10" x1="379.7" y1="128.9" x2="491.1" y2="205.4"/>
	
		<line clip-path="url(#SVGID_2_)" fill="none" stroke="#808080" stroke-width="2" stroke-miterlimit="10" x1="603.7" y1="114.7" x2="367.1" y2="77.1"/>
	
		<line clip-path="url(#SVGID_2_)" fill="none" stroke="#808080" stroke-width="2" stroke-miterlimit="10" x1="378.6" y1="128" x2="367.1" y2="74.7"/>
	
		<line clip-path="url(#SVGID_2_)" fill="none" stroke="#808080" stroke-width="2" stroke-miterlimit="10" x1="367.2" y1="77.4" x2="703.5" y2="32.8"/>
	
		<line clip-path="url(#SVGID_2_)" fill="none" stroke="#808080" stroke-width="2" stroke-miterlimit="10" x1="603.7" y1="112.3" x2="553.8" y2="50.2"/>
	
		<line clip-path="url(#SVGID_2_)" fill="none" stroke="#808080" stroke-width="2" stroke-miterlimit="10" x1="368.2" y1="77" x2="352.6" y2="28.9"/>
	
		<line clip-path="url(#SVGID_2_)" fill="none" stroke="#808080" stroke-width="2" stroke-miterlimit="10" x1="379.7" y1="128.9" x2="392.9" y2="311.7"/>
	
		<line clip-path="url(#SVGID_2_)" fill="none" stroke="#808080" stroke-width="2" stroke-miterlimit="10" x1="491.1" y1="205.4" x2="664.9" y2="287.1"/>
	
		<line clip-path="url(#SVGID_2_)" fill="none" stroke="#808080" stroke-width="2" stroke-miterlimit="10" x1="713.2" y1="197.3" x2="848.4" y2="269.9"/>
	
		<line clip-path="url(#SVGID_2_)" fill="none" stroke="#808080" stroke-width="2" stroke-miterlimit="10" x1="795.3" y1="241.4" x2="618.2" y2="466.9"/>
	
		<line clip-path="url(#SVGID_2_)" fill="none" stroke="#808080" stroke-width="2" stroke-miterlimit="10" x1="713.2" y1="197.3" x2="664.9" y2="287.1"/>
	
		<line clip-path="url(#SVGID_2_)" fill="none" stroke="#808080" stroke-width="2" stroke-miterlimit="10" x1="801.6" y1="238.1" x2="664.9" y2="287.1"/>
	
		<line clip-path="url(#SVGID_2_)" fill="none" stroke="#808080" stroke-width="2" stroke-miterlimit="10" x1="491.1" y1="205.4" x2="386.5" y2="220.7"/>
	
		<line clip-path="url(#SVGID_2_)" fill="none" stroke="#808080" stroke-width="2" stroke-miterlimit="10" x1="491.1" y1="205.4" x2="542.6" y2="267.5"/>
	
		<line clip-path="url(#SVGID_2_)" fill="none" stroke="#808080" stroke-width="2" stroke-miterlimit="10" x1="715.9" y1="197.4" x2="795.3" y2="28.9"/>
	
		<line clip-path="url(#SVGID_2_)" fill="none" stroke="#808080" stroke-width="2" stroke-miterlimit="10" x1="799.6" y1="25.8" x2="607.9" y2="113"/>
	
		<line clip-path="url(#SVGID_2_)" fill="none" stroke="#808080" stroke-width="2" stroke-miterlimit="10" x1="713.2" y1="197.3" x2="801.6" y2="154.8"/>
	
		<line clip-path="url(#SVGID_2_)" fill="none" stroke="#808080" stroke-width="2" stroke-miterlimit="10" x1="605.8" y1="113.3" x2="747" y2="127"/>
	
		<line clip-path="url(#SVGID_2_)" fill="none" stroke="#808080" stroke-width="2" stroke-miterlimit="10" x1="6.5" y1="532.3" x2="209.3" y2="605.8"/>
	<g clip-path="url(#SVGID_2_)">
		<defs>
			<polygon id="SVGID_11_" points="1020.2,0 0,0.6 0,955.4 1920,955.4 1920,911.4 1920,0 			"/>
		</defs>
		<clipPath id="SVGID_12_">
			<use xlink:href="#SVGID_11_"  overflow="visible"/>
		</clipPath>
		
			<line clip-path="url(#SVGID_12_)" fill="none" stroke="#808080" stroke-width="2" stroke-miterlimit="10" x1="6.5" y1="532.3" x2="-93.3" y2="515.9"/>
		
			<line clip-path="url(#SVGID_12_)" fill="none" stroke="#808080" stroke-width="2" stroke-miterlimit="10" x1="-20.9" y1="836.3" x2="82.2" y2="860.8"/>
		
			<line clip-path="url(#SVGID_12_)" fill="none" stroke="#808080" stroke-width="2" stroke-miterlimit="10" x1="2.8" y1="536.9" x2="-69.6" y2="714.2"/>
	</g>
	
		<line clip-path="url(#SVGID_2_)" fill="none" stroke="#808080" stroke-width="2" stroke-miterlimit="10" x1="257.6" y1="202.2" x2="209.3" y2="323.1"/>
	
		<line clip-path="url(#SVGID_2_)" fill="none" stroke="#808080" stroke-width="2" stroke-miterlimit="10" x1="76.6" y1="162.1" x2="183.6" y2="231.6"/>
	
		<line clip-path="url(#SVGID_2_)" fill="none" stroke="#808080" stroke-width="2" stroke-miterlimit="10" x1="61.2" y1="259.4" x2="-40.2" y2="314.9"/>
	
		<line clip-path="url(#SVGID_2_)" fill="none" stroke="#808080" stroke-width="2" stroke-miterlimit="10" x1="61.2" y1="259.4" x2="30.7" y2="359.1"/>
	<path clip-path="url(#SVGID_2_)" d="M19.8,245.3c3.9,0,7-3.2,7-7.1s-3.1-7.1-7-7.1s-7,3.2-7,7.1S15.9,245.3,19.8,245.3"/>
	<path clip-path="url(#SVGID_2_)" d="M209.3,613c3.9,0,7-3.2,7-7.1s-3.1-7.1-7-7.1c-3.9,0-7,3.2-7,7.1S205.5,613,209.3,613"/>
	<path clip-path="url(#SVGID_2_)" d="M86.6,871.1c3.9,0,7-3.2,7-7.1s-3.1-7.1-7-7.1c-3.9,0-7,3.2-7,7.1S82.7,871.1,86.6,871.1"/>
	<path clip-path="url(#SVGID_2_)" d="M161,121c3.9,0,7-3.2,7-7.1c0-3.9-3.1-7.1-7-7.1c-3.9,0-7,3.2-7,7.1
		C154,117.9,157.2,121,161,121"/>
	<path clip-path="url(#SVGID_2_)" d="M378.2,135.1c3.9,0,7-3.2,7-7.1s-3.1-7.1-7-7.1c-3.9,0-7,3.2-7,7.1S374.4,135.1,378.2,135.1"/>
	<path clip-path="url(#SVGID_2_)" d="M290.9,87.6c3.9,0,7-3.2,7-7.1s-3.1-7.1-7-7.1c-3.9,0-7,3.2-7,7.1S287.1,87.6,290.9,87.6"/>
	<path clip-path="url(#SVGID_2_)" d="M203.5,40.2c3.9,0,7-3.2,7-7.1c0-3.9-3.1-7.1-7-7.1c-3.9,0-7,3.2-7,7.1
		C196.5,37,199.6,40.2,203.5,40.2"/>
	<path clip-path="url(#SVGID_2_)" d="M569.9,148.3c3.9,0,7-3.2,7-7.1c0-3.9-3.1-7.1-7-7.1c-3.9,0-7,3.2-7,7.1
		C562.9,145.1,566,148.3,569.9,148.3"/>
	<path clip-path="url(#SVGID_2_)" d="M394.5,316.8c3.9,0,7-3.2,7-7.1c0-3.9-3.1-7.1-7-7.1c-3.9,0-7,3.2-7,7.1
		C387.5,313.6,390.6,316.8,394.5,316.8"/>
	<path clip-path="url(#SVGID_2_)" d="M542.6,274.7c3.9,0,7-3.2,7-7.1c0-3.9-3.1-7.1-7-7.1c-3.9,0-7,3.2-7,7.1
		C535.5,271.5,538.7,274.7,542.6,274.7"/>
	<path clip-path="url(#SVGID_2_)" d="M664.9,294.3c3.9,0,7-3.2,7-7.1s-3.1-7.1-7-7.1c-3.9,0-7,3.2-7,7.1S661,294.3,664.9,294.3"/>
	<path clip-path="url(#SVGID_2_)" d="M618.2,474c3.9,0,7-3.2,7-7.1s-3.1-7.1-7-7.1c-3.9,0-7,3.2-7,7.1S614.3,474,618.2,474"/>
	<path clip-path="url(#SVGID_2_)" d="M714.1,206.2c3.9,0,7-3.2,7-7.1s-3.1-7.1-7-7.1c-3.9,0-7,3.2-7,7.1S710.2,206.2,714.1,206.2"/>
	<path clip-path="url(#SVGID_2_)" d="M801.6,161.9c3.9,0,7-3.2,7-7.1c0-3.9-3.1-7.1-7-7.1c-3.9,0-7,3.2-7,7.1
		C794.6,158.7,797.8,161.9,801.6,161.9"/>
	<path clip-path="url(#SVGID_2_)" d="M799.6,32.9c3.9,0,7-3.2,7-7.1s-3.1-7.1-7-7.1c-3.9,0-7,3.2-7,7.1S795.7,32.9,799.6,32.9"/>
	<path clip-path="url(#SVGID_2_)" d="M745.8,134.1c3.9,0,7-3.2,7-7.1s-3.1-7.1-7-7.1c-3.9,0-7,3.2-7,7.1S742,134.1,745.8,134.1"/>
	<path clip-path="url(#SVGID_2_)" d="M795.3,248.5c3.9,0,7-3.2,7-7.1s-3.1-7.1-7-7.1c-3.9,0-7,3.2-7,7.1S791.4,248.5,795.3,248.5"/>
	<path clip-path="url(#SVGID_2_)" d="M848.4,277c3.9,0,7-3.2,7-7.1s-3.1-7.1-7-7.1c-3.9,0-7,3.2-7,7.1S844.5,277,848.4,277"/>
	<path clip-path="url(#SVGID_2_)" d="M472.7,39.1c3.9,0,7-3.2,7-7.1s-3.1-7.1-7-7.1c-3.9,0-7,3.2-7,7.1S468.8,39.1,472.7,39.1"/>
	<path clip-path="url(#SVGID_2_)" d="M701.9,39.7c5.1,1.2,9.6-3.4,8.5-8.6c-0.6-2.6-2.7-4.7-5.2-5.3c-5.1-1.2-9.6,3.4-8.5,8.6
		C697.2,37,699.3,39.2,701.9,39.7"/>
	<path clip-path="url(#SVGID_2_)" d="M732.5,16.3c5.1,1.2,9.6-3.4,8.5-8.6c-0.6-2.6-2.7-4.7-5.2-5.3c-5.1-1.2-9.6,3.4-8.5,8.6
		C727.9,13.6,729.9,15.7,732.5,16.3"/>
	<path clip-path="url(#SVGID_2_)" d="M78.7,35.1c3.9,0,7-3.2,7-7.1c0-3.9-3.1-7.1-7-7.1c-3.9,0-7,3.2-7,7.1
		C71.7,31.9,74.8,35.1,78.7,35.1"/>
	
		<line clip-path="url(#SVGID_2_)" fill="none" stroke="#808080" stroke-width="2" stroke-miterlimit="10" x1="491.1" y1="205.4" x2="478.5" y2="134.4"/>
	<path clip-path="url(#SVGID_2_)" d="M491.1,212.6c3.9,0,7-3.2,7-7.1c0-3.9-3.1-7.1-7-7.1c-3.9,0-7,3.2-7,7.1
		C484,209.4,487.2,212.6,491.1,212.6"/>
	
		<line clip-path="url(#SVGID_2_)" fill="none" stroke="#808080" stroke-width="2" stroke-miterlimit="10" x1="478.5" y1="134.4" x2="369.7" y2="77.6"/>
	<path clip-path="url(#SVGID_2_)" d="M368.2,84.2c3.9,0,7-3.2,7-7.1c0-3.9-3.1-7.1-7-7.1c-3.9,0-7,3.2-7,7.1
		C361.2,81,364.3,84.2,368.2,84.2"/>
	<path clip-path="url(#SVGID_2_)" d="M605.8,120.4c3.9,0,7-3.2,7-7.1s-3.1-7.1-7-7.1c-3.9,0-7,3.2-7,7.1S601.9,120.4,605.8,120.4"/>
	<path clip-path="url(#SVGID_2_)" d="M478.6,143.8c3.9,0,7-3.2,7-7.1c0-3.9-3.1-7.1-7-7.1c-3.9,0-7,3.2-7,7.1
		C471.6,140.6,474.7,143.8,478.6,143.8"/>
	
		<line clip-path="url(#SVGID_2_)" fill="none" stroke="#808080" stroke-width="2" stroke-miterlimit="10" x1="3.8" y1="529.9" x2="-66.8" y2="428"/>
	<path clip-path="url(#SVGID_2_)" d="M554.3,59.9c3.9,0,7-3.2,7-7.1s-3.1-7.1-7-7.1c-3.9,0-7,3.2-7,7.1S550.5,59.9,554.3,59.9"/>
	
		<line clip-path="url(#SVGID_2_)" fill="none" stroke="#808080" stroke-width="2" stroke-miterlimit="10" x1="5.3" y1="529.5" x2="7" y2="650.9"/>
	
		<line clip-path="url(#SVGID_2_)" fill="none" stroke="#808080" stroke-width="2" stroke-miterlimit="10" x1="7" y1="650.9" x2="-106.3" y2="602.6"/>
	
		<line clip-path="url(#SVGID_2_)" fill="none" stroke="#808080" stroke-width="2" stroke-miterlimit="10" x1="7" y1="650.9" x2="-69.6" y2="714.2"/>
	
		<line clip-path="url(#SVGID_2_)" fill="none" stroke="#808080" stroke-width="2" stroke-miterlimit="10" x1="-1.6" y1="732.8" x2="46.4" y2="710.1"/>
	
		<line clip-path="url(#SVGID_2_)" fill="none" stroke="#808080" stroke-width="2" stroke-miterlimit="10" x1="-22.2" y1="957.8" x2="19" y2="912.2"/>
	<path clip-path="url(#SVGID_2_)" d="M19,919.3c3.9,0,7-3.2,7-7.1s-3.1-7.1-7-7.1s-7,3.2-7,7.1S15.1,919.3,19,919.3"/>
	<path clip-path="url(#SVGID_2_)" d="M354.2,936.1c3.9,0,7-3.2,7-7.1s-3.1-7.1-7-7.1c-3.9,0-7,3.2-7,7.1S350.3,936.1,354.2,936.1"/>
	<path clip-path="url(#SVGID_2_)" d="M48.8,717.8c3.9,0,7-3.2,7-7.1s-3.1-7.1-7-7.1s-7,3.2-7,7.1S44.9,717.8,48.8,717.8"/>
	<path clip-path="url(#SVGID_2_)" d="M7,658c3.9,0,7-3.2,7-7.1s-3.1-7.1-7-7.1s-7,3.2-7,7.1S3.1,658,7,658"/>
	<path clip-path="url(#SVGID_2_)" d="M-1.6,739.9c3.9,0,7-3.2,7-7.1s-3.1-7.1-7-7.1s-7,3.2-7,7.1S-5.5,739.9-1.6,739.9"/>
	
		<line clip-path="url(#SVGID_2_)" fill="none" stroke="#808080" stroke-width="2" stroke-miterlimit="10" x1="388.3" y1="224.1" x2="261.8" y2="202.2"/>
	
		<line clip-path="url(#SVGID_2_)" fill="none" stroke="#808080" stroke-width="2" stroke-miterlimit="10" x1="257.6" y1="202.2" x2="76.6" y2="162.1"/>
	
		<line clip-path="url(#SVGID_2_)" fill="none" stroke="#808080" stroke-width="2" stroke-miterlimit="10" x1="60.4" y1="260.4" x2="183.6" y2="231.6"/>
	
		<line clip-path="url(#SVGID_2_)" fill="none" stroke="#808080" stroke-width="2" stroke-miterlimit="10" x1="209.3" y1="323.1" x2="59.5" y2="263.4"/>
	
		<line clip-path="url(#SVGID_2_)" fill="none" stroke="#808080" stroke-width="2" stroke-miterlimit="10" x1="30.5" y1="356.5" x2="-40.2" y2="314.9"/>
	
		<line clip-path="url(#SVGID_2_)" fill="none" stroke="#808080" stroke-width="2" stroke-miterlimit="10" x1="8.1" y1="527.8" x2="30.7" y2="359.1"/>
	
		<line clip-path="url(#SVGID_2_)" fill="none" stroke="#808080" stroke-width="2" stroke-miterlimit="10" x1="46.8" y1="504.5" x2="30.7" y2="359.1"/>
	
		<line clip-path="url(#SVGID_2_)" fill="none" stroke="#808080" stroke-width="2" stroke-miterlimit="10" x1="46.8" y1="504.5" x2="138.2" y2="436.3"/>
	
		<line clip-path="url(#SVGID_2_)" fill="none" stroke="#808080" stroke-width="2" stroke-miterlimit="10" x1="183.5" y1="233.9" x2="209.3" y2="323.1"/>
	
		<line clip-path="url(#SVGID_2_)" fill="none" stroke="#808080" stroke-width="2" stroke-miterlimit="10" x1="388.3" y1="224.1" x2="213.8" y2="323.1"/>
	
		<line clip-path="url(#SVGID_2_)" fill="none" stroke="#808080" stroke-width="2" stroke-miterlimit="10" x1="206.8" y1="323.1" x2="32.1" y2="357.3"/>
	
		<line clip-path="url(#SVGID_2_)" fill="none" stroke="#808080" stroke-width="2" stroke-miterlimit="10" x1="30.7" y1="359.1" x2="139.1" y2="438.4"/>
	
		<line clip-path="url(#SVGID_2_)" fill="none" stroke="#808080" stroke-width="2" stroke-miterlimit="10" x1="138.2" y1="436.3" x2="156.2" y2="398.4"/>
	
		<line clip-path="url(#SVGID_2_)" fill="none" stroke="#808080" stroke-width="2" stroke-miterlimit="10" x1="206.8" y1="330.2" x2="221.4" y2="400.1"/>
	
		<line clip-path="url(#SVGID_2_)" fill="none" stroke="#808080" stroke-width="2" stroke-miterlimit="10" x1="290" y1="962.7" x2="348.4" y2="931.3"/>
	
		<line clip-path="url(#SVGID_2_)" fill="none" stroke="#808080" stroke-width="2" stroke-miterlimit="10" x1="290" y1="962.7" x2="152.8" y2="938.3"/>
	<path clip-path="url(#SVGID_2_)" d="M183.6,238.7c3.9,0,7-3.2,7-7.1s-3.1-7.1-7-7.1c-3.9,0-7,3.2-7,7.1S179.7,238.7,183.6,238.7"/>
	<path clip-path="url(#SVGID_2_)" d="M60.4,267.5c3.9,0,7-3.2,7-7.1c0-3.9-3.1-7.1-7-7.1s-7,3.2-7,7.1
		C53.4,264.3,56.5,267.5,60.4,267.5"/>
	<path clip-path="url(#SVGID_2_)" d="M206.8,330.2c3.9,0,7-3.2,7-7.1c0-3.9-3.1-7.1-7-7.1c-3.9,0-7,3.2-7,7.1
		C199.8,327,202.9,330.2,206.8,330.2"/>
	<path clip-path="url(#SVGID_2_)" d="M258.2,208.4c3.9,0,7-3.2,7-7.1s-3.1-7.1-7-7.1c-3.9,0-7,3.2-7,7.1S254.3,208.4,258.2,208.4"/>
	<path clip-path="url(#SVGID_2_)" d="M388.3,231.2c3.9,0,7-3.2,7-7.1c0-3.9-3.1-7.1-7-7.1c-3.9,0-7,3.2-7,7.1
		C381.3,228,384.5,231.2,388.3,231.2"/>
	<path clip-path="url(#SVGID_2_)" d="M76.6,169.2c3.9,0,7-3.2,7-7.1c0-3.9-3.1-7.1-7-7.1c-3.9,0-7,3.2-7,7.1
		C69.6,166,72.7,169.2,76.6,169.2"/>
	<path clip-path="url(#SVGID_2_)" d="M46.8,511.6c3.9,0,7-3.2,7-7.1c0-3.9-3.1-7.1-7-7.1s-7,3.2-7,7.1
		C39.7,508.4,42.9,511.6,46.8,511.6"/>
	<path clip-path="url(#SVGID_2_)" d="M134.4,446.4c3.9,0,7-3.2,7-7.1c0-3.9-3.1-7.1-7-7.1c-3.9,0-7,3.2-7,7.1
		C127.4,443.2,130.6,446.4,134.4,446.4"/>
	<path clip-path="url(#SVGID_2_)" d="M156.2,405.5c3.9,0,7-3.2,7-7.1s-3.1-7.1-7-7.1c-3.9,0-7,3.2-7,7.1S152.3,405.5,156.2,405.5"/>
	<path clip-path="url(#SVGID_2_)" d="M224,407.7c3.9,0,7-3.2,7-7.1c0-3.9-3.1-7.1-7-7.1c-3.9,0-7,3.2-7,7.1
		C217,404.5,220.1,407.7,224,407.7"/>
	<path clip-path="url(#SVGID_2_)" d="M5.3,536.7c3.9,0,7-3.2,7-7.1s-3.1-7.1-7-7.1s-7,3.2-7,7.1S1.5,536.7,5.3,536.7"/>
	<path clip-path="url(#SVGID_2_)" d="M153.7,946.2c3.9,0,7-3.2,7-7.1s-3.1-7.1-7-7.1c-3.9,0-7,3.2-7,7.1S149.8,946.2,153.7,946.2"/>
	
		<line clip-path="url(#SVGID_2_)" fill="none" stroke="#808080" stroke-width="2" stroke-miterlimit="10" x1="30.4" y1="358.6" x2="-67.7" y2="425.3"/>
	<path clip-path="url(#SVGID_2_)" d="M30.7,366.2c3.9,0,7-3.2,7-7.1c0-3.9-3.1-7.1-7-7.1c-3.9,0-7,3.2-7,7.1
		C23.6,363,26.8,366.2,30.7,366.2"/>
	<g opacity="5.000310e-002" clip-path="url(#SVGID_2_)">
		<g>
			<path fill="#808080" d="M1812.7,134.1l-1.8-107.5h-2.8l1.8,107.6c0.5-0.1,1-0.1,1.5-0.1C1811.8,133.9,1812.3,134,1812.7,134.1"/>
			<path fill="#808080" d="M1916.2,71.8c-0.3-0.9-0.5-1.9-0.5-2.9c0-0.1,0-0.2,0-0.3l-98.1,68c0.6,0.7,1.2,1.5,1.6,2.4L1916.2,71.8z
				"/>
			<path fill="#808080" d="M1874.8,26.5h-4.6l47.6,36.7c0.6-0.7,1.4-1.4,2.2-1.9L1874.8,26.5z"/>
			<path fill="#808080" d="M1917.6,207.3l-98.2-61.3c-0.4,0.9-0.9,1.7-1.5,2.4l98.3,61.3C1916.5,208.9,1917,208,1917.6,207.3"/>
			<path fill="#808080" d="M1951.5,338.3l-52.9,246.4c0.1,0,0.2,0,0.3,0c0.9,0,1.7,0.1,2.5,0.4l52.6-245l31.8,116.8
				c0.9-0.3,1.8-0.5,2.8-0.6l-32-117.6c-0.6,0.1-1.2,0.2-1.8,0.2C1953.5,339,1952.4,338.7,1951.5,338.3"/>
			<path fill="#808080" d="M1856,566c-0.4,0.9-0.8,1.7-1.5,2.4l36.1,22.1c0.3-0.9,0.8-1.8,1.4-2.5L1856,566z"/>
			<path fill="#808080" d="M1906.7,597c-0.4,0.9-0.9,1.7-1.6,2.4l62.7,38.4c0.1-1,0.4-1.9,0.8-2.8L1906.7,597z"/>
			<path fill="#808080" d="M1170,86.7c-0.4,0.9-1,1.7-1.6,2.3l30.1,24.3c0.4-0.9,0.9-1.7,1.6-2.4L1170,86.7z"/>
			<path fill="#808080" d="M1213.5,121.9c-0.5,0.8-1.2,1.5-1.9,2.1l83.9,67.7c0.5-0.8,1.1-1.6,1.8-2.2L1213.5,121.9z"/>
			<path fill="#808080" d="M1156.8,76.1l-57.6-46.4v3.6l55.7,44.9C1155.5,77.4,1156.1,76.7,1156.8,76.1"/>
			<path fill="#808080" d="M1495.1,26.5h-11.3l-23.6,6.2c0.6,0.8,1.1,1.6,1.5,2.5L1495.1,26.5z"/>
			<path fill="#808080" d="M1555.6,37.6l19.5-11.1h-5.7l-15.7,9C1554.4,36.1,1555,36.8,1555.6,37.6"/>
			<path fill="#808080" d="M1714.7,78.4l49.1-51.9h-3.9l-47.2,49.9C1713.5,77,1714.2,77.7,1714.7,78.4"/>
			<path fill="#808080" d="M1681.3,26.5h-3.1l24.6,50c0.8-0.6,1.6-1,2.5-1.3L1681.3,26.5z"/>
			<path fill="#808080" d="M1099.3,129.5v3.6l57.4-43.5c-0.7-0.6-1.3-1.4-1.8-2.2L1099.3,129.5z"/>
			<path fill="#808080" d="M1294.6,194.2l-195.3-5.6v2.9l195.2,5.6c-0.1-0.4-0.1-0.8-0.1-1.2
				C1294.4,195.3,1294.5,194.8,1294.6,194.2"/>
			<path fill="#808080" d="M1170.4,85.7l134.3,22.2l-90.4,5.8c0.4,0.9,0.6,1.8,0.6,2.8l94.9-6c0.2-1.6,0.9-3.1,1.8-4.3L1177.5,84
				l118.2-18.8c-0.6-0.8-1-1.7-1.2-2.7l-123.7,19.6c0,0.2,0,0.5,0,0.8C1170.9,83.9,1170.7,84.8,1170.4,85.7"/>
			<path fill="#808080" d="M1803.3,139.7c0.3-0.9,0.8-1.7,1.4-2.5l-88.8-50.6c-0.3,0.9-0.8,1.7-1.4,2.5L1803.3,139.7z"/>
			<path fill="#808080" d="M1919.8,205.3c0.9-0.5,1.8-0.9,2.8-1.1l1.7-126.5c-1,0-1.9-0.2-2.8-0.5L1919.8,205.3z"/>
			<path fill="#808080" d="M1874.2,241.3c-0.6-0.8-1-1.6-1.3-2.5l-34.8,19.2c0.6,0.7,1,1.6,1.3,2.5L1874.2,241.3z"/>
			<path fill="#808080" d="M1889.2,233.1l28-15.4c-0.5-0.8-0.9-1.7-1.2-2.6l-28.2,15.5C1888.4,231.3,1888.9,232.2,1889.2,233.1"/>
			<path fill="#808080" d="M1921.6,221.1l26.8,98.6l-60.2-78.7c-0.5,0.8-1.2,1.5-2,2.1l62,81.2c1-1.1,2.2-1.9,3.6-2.4l-27.3-100.4
				c-0.1,0-0.2,0-0.3,0C1923.3,221.5,1922.4,221.4,1921.6,221.1"/>
			<path fill="#808080" d="M1878.2,227.8l-60.5-79.2c-0.6,0.7-1.4,1.3-2.2,1.8l60.2,78.8C1876.5,228.6,1877.3,228.2,1878.2,227.8"/>
			<path fill="#808080" d="M1596.5,187.3l105.9-96.8c-0.7-0.6-1.4-1.3-1.9-2.1l-105.6,96.5C1595.6,185.6,1596.1,186.4,1596.5,187.3"
				/>
			<path fill="#808080" d="M1540.6,46.1c-0.4-0.9-0.6-1.8-0.7-2.9l-91.8,52.2c0.6,0.7,1,1.6,1.4,2.5L1540.6,46.1z"/>
			<path fill="#808080" d="M1698.8,82.8l-249.1,15.9c0.2,0.7,0.3,1.5,0.3,2.3c0,0.2,0,0.4,0,0.6l249.4-15.9c-0.1-0.6-0.2-1.3-0.2-2
				c0-1.2,0.3-2.4,0.7-3.5l-142.8-36.8c-0.1,1-0.3,1.9-0.7,2.8L1698.8,82.8z"/>
			<path fill="#808080" d="M1581.8,185.6l-132.6-80.8c-0.4,0.9-1,1.7-1.6,2.3l133,81C1580.8,187.2,1581.2,186.4,1581.8,185.6"/>
			<path fill="#808080" d="M1310.9,192.2l124.3-85.4c-0.6-0.7-1.2-1.5-1.6-2.4l-124.3,85.4C1309.9,190.6,1310.5,191.4,1310.9,192.2"
				/>
			<path fill="#808080" d="M1451.2,46.8l-9.8,45.4c1,0,1.9,0.2,2.8,0.5l9.8-45.5c-0.1,0-0.2,0-0.3,0
				C1452.8,47.2,1452,47,1451.2,46.8"/>
			<path fill="#808080" d="M1311,62.8l132.8-21.1l-120.5,62.9c1.6,1.2,2.8,2.9,3.3,4.8l106.3-6.8c-0.1-0.5-0.2-1.1-0.2-1.6
				c0-0.4,0-0.8,0.1-1.2l-107.3,6.8l121.1-63.1c-1-1.4-1.6-3.1-1.6-5c0-1.7,0.5-3.4,1.4-4.7l-16.5-7.1h-7.2l22.1,9.5l-71.7-9.5
				h-21.7l92.4,12.2l-132.4,21c0,0.1,0,0.2,0,0.4C1311.4,61.1,1311.3,62,1311,62.8"/>
			<path fill="#808080" d="M1169.5,78.1l41.4-51.6h-3.6L1167.5,76C1168.3,76.6,1168.9,77.3,1169.5,78.1"/>
			<path fill="#808080" d="M1459,26.5h-3l-1,3.2c0.9,0.1,1.8,0.4,2.7,0.9L1459,26.5z"/>
			<path fill="#808080" d="M1433.2,211.1l7.3-101.5c-1-0.1-1.9-0.4-2.8-0.8l-7.3,101.3C1431.4,210.3,1432.4,210.7,1433.2,211.1"/>
			<path fill="#808080" d="M1422.9,315.1c1,0.2,1.9,0.5,2.7,1l6.4-89.1c-0.9,0.3-1.8,0.5-2.9,0.6L1422.9,315.1z"/>
			<path fill="#808080" d="M1099.3,290.1v3.1l196.6-92.4c-0.5-0.8-0.9-1.7-1.2-2.6L1099.3,290.1z"/>
			<path fill="#808080" d="M1099.3,453.5v4.6l41.4,52.7c0.6-0.7,1.4-1.3,2.2-1.8L1099.3,453.5z"/>
			<path fill="#808080" d="M1423.5,212.1l-111.8-16.4c0,0.1,0,0.1,0,0.2c0,0.9-0.1,1.8-0.4,2.6l110.2,16.1
				C1421.9,213.7,1422.6,212.8,1423.5,212.1"/>
			<path fill="#808080" d="M1244.2,264.6c0.8,0.5,1.5,1.1,2.1,1.8l52.2-63c-0.8-0.5-1.5-1.1-2.1-1.8L1244.2,264.6z"/>
			<path fill="#808080" d="M1099.3,53.5v3.1l54.5,24.8c0.2-1,0.5-1.9,0.9-2.7L1099.3,53.5z"/>
			<path fill="#808080" d="M1153.7,82.3l-54.4,5.3v2.9l54.7-5.3c-0.2-0.7-0.3-1.5-0.3-2.2C1153.6,82.7,1153.7,82.5,1153.7,82.3"/>
			<path fill="#808080" d="M1656.1,682.8c0.4,0.8,0.8,1.7,0.9,2.7l236-85.6c-0.7-0.7-1.4-1.5-1.8-2.4L1656.1,682.8z"/>
			<path fill="#808080" d="M2011.6,579.6c-0.3-0.9-0.5-1.8-0.5-2.8c0,0,0,0,0,0l-103.8,17c0,1.1-0.2,2.1-0.6,3L2011.6,579.6z"/>
			<path fill="#808080" d="M1903.3,602l-2.6,1.1l45.7,111.8c0.8-0.5,1.6-0.9,2.6-1.2L1903.3,602z"/>
			<path fill="#808080" d="M1590.8,199.3l54.1,135.5c0.6-0.8,1.4-1.5,2.2-2l-53.8-134.6C1592.6,198.7,1591.7,199.1,1590.8,199.3"/>
			<path fill="#808080" d="M1688.1,224.5l116.9-76c-0.6-0.7-1.1-1.5-1.5-2.4l-116.9,76C1687.2,222.8,1687.7,223.6,1688.1,224.5"/>
			<path fill="#808080" d="M1838.4,268.2l108.1,59.2c0.3-0.9,0.8-1.8,1.3-2.5l-108.2-59.3C1839.3,266.5,1839,267.4,1838.4,268.2"/>
			<path fill="#808080" d="M1831.8,272l32.1,104.5c0.8-0.4,1.7-0.7,2.7-0.8l-32-104.3C1833.7,271.8,1832.8,272,1831.8,272"/>
			<path d="M1889.2,233.1c-0.3-0.9-0.8-1.7-1.4-2.5c-1.6-2-4-3.3-6.7-3.3c-1,0-2,0.2-2.9,0.5c-0.9,0.3-1.7,0.8-2.5,1.4
				c-2,1.6-3.3,4.1-3.3,6.8c0,1,0.2,1.9,0.4,2.7c0.3,0.9,0.7,1.8,1.3,2.5c1.6,2.1,4.1,3.5,6.9,3.5c2,0,3.7-0.7,5.2-1.8
				c0.8-0.6,1.4-1.3,2-2.1c0.9-1.4,1.5-3.1,1.5-4.9C1889.7,235,1889.5,234,1889.2,233.1"/>
			<path d="M1648.6,678.3c-4.8,0-8.6,3.9-8.6,8.7c0,4.8,3.9,8.7,8.6,8.7c4.8,0,8.6-3.9,8.6-8.7c0-0.5-0.1-1.1-0.1-1.6
				c-0.2-1-0.5-1.9-0.9-2.7C1654.6,680.1,1651.8,678.3,1648.6,678.3"/>
			<path d="M1917.6,207.3c-0.6,0.7-1.1,1.6-1.4,2.5c-0.3,0.9-0.5,2-0.5,3c0,0.8,0.1,1.6,0.3,2.3c0.3,0.9,0.7,1.8,1.2,2.6
				c1.1,1.6,2.6,2.8,4.4,3.4c0.9,0.3,1.8,0.5,2.7,0.5c0.1,0,0.2,0,0.3,0c2.4-0.1,4.5-1.1,6-2.8c0.6-0.7,1.2-1.5,1.6-2.4
				c0.5-1.1,0.8-2.3,0.8-3.6c0-1.7-0.5-3.4-1.4-4.7c-0.5-0.8-1.2-1.5-1.9-2.1c-0.6-0.5-1.2-0.9-1.9-1.2c-0.9-0.4-1.8-0.6-2.8-0.7
				c-0.2,0-0.4,0-0.6,0c-0.6,0-1.1,0.1-1.7,0.2c-1,0.2-2,0.6-2.8,1.1C1918.9,205.9,1918.2,206.5,1917.6,207.3"/>
			<path d="M1916.2,71.8c0.9,2.5,2.8,4.5,5.3,5.4c0.9,0.3,1.8,0.5,2.8,0.5c0,0,0,0,0,0c4.8,0,8.6-3.9,8.6-8.7c0-2.7-1.2-5.1-3-6.7
				c-0.8-0.7-1.7-1.2-2.7-1.6c-0.5-0.2-1.1-0.3-1.6-0.4c-0.4-0.1-0.8-0.1-1.3-0.1c-0.5,0-1.1,0.1-1.6,0.2c-1,0.2-1.9,0.6-2.8,1.1
				c-0.8,0.5-1.6,1.1-2.2,1.9c-1.2,1.5-2,3.3-2,5.4c0,0.1,0,0.2,0,0.3C1915.7,69.9,1915.9,70.9,1916.2,71.8"/>
			<path d="M1699.4,85.6c0.2,1,0.6,1.9,1.1,2.8c0.5,0.8,1.1,1.5,1.9,2.1c1.5,1.2,3.3,1.9,5.4,1.9c2.7,0,5.1-1.3,6.7-3.3
				c0.6-0.7,1-1.6,1.4-2.5c0.3-0.9,0.5-1.9,0.5-3c0-2-0.6-3.8-1.7-5.2c-0.6-0.8-1.2-1.4-2-2c-1.4-1-3.1-1.5-4.9-1.5
				c-0.9,0-1.7,0.1-2.5,0.4c-0.9,0.3-1.8,0.7-2.5,1.3c-1.2,0.9-2.2,2.1-2.8,3.6c-0.5,1.1-0.7,2.3-0.7,3.5
				C1699.2,84.3,1699.3,85,1699.4,85.6"/>
			<path d="M1441.4,92.2c-4.4,0-7.9,3.3-8.5,7.5c-0.1,0.4-0.1,0.8-0.1,1.2c0,0.6,0.1,1.1,0.2,1.7c0.1,0.7,0.3,1.3,0.6,1.9
				c0.4,0.9,0.9,1.7,1.6,2.4c0.7,0.8,1.6,1.5,2.7,2c0.9,0.4,1.8,0.7,2.8,0.8c0.3,0,0.6,0,0.9,0c2.4,0,4.5-1,6.1-2.6
				c0.7-0.7,1.2-1.5,1.6-2.3c0.5-1,0.8-2.1,0.9-3.3c0-0.2,0-0.4,0-0.6c0-0.8-0.1-1.5-0.3-2.3c-0.1-0.2-0.1-0.5-0.2-0.7
				c-0.3-0.9-0.8-1.7-1.4-2.5c-1-1.3-2.4-2.3-3.9-2.8C1443.3,92.4,1442.4,92.2,1441.4,92.2C1441.4,92.2,1441.4,92.2,1441.4,92.2"/>
			<path d="M1548.5,51.3c3.5,0,6.6-2.2,7.9-5.2c0.4-0.9,0.6-1.8,0.7-2.8c0-0.2,0-0.5,0-0.7c0-1.8-0.6-3.6-1.5-5
				c-0.6-0.8-1.2-1.5-2-2.1c-1.4-1-3.2-1.7-5.1-1.7c-4.8,0-8.6,3.9-8.6,8.7c0,0.2,0,0.5,0,0.7c0.1,1,0.3,2,0.7,2.9
				C1542,49.2,1545,51.3,1548.5,51.3"/>
			<path d="M1213.5,121.9c0.9-1.4,1.4-3,1.4-4.8c0-0.2,0-0.4,0-0.6c-0.1-1-0.3-1.9-0.6-2.8c-1.3-3.2-4.4-5.4-8-5.4
				c-2.5,0-4.7,1.1-6.3,2.7c-0.6,0.7-1.2,1.5-1.6,2.4c-0.5,1.1-0.8,2.3-0.8,3.6c0,4.8,3.9,8.7,8.6,8.7c2,0,3.8-0.7,5.3-1.8
				C1212.3,123.4,1213,122.7,1213.5,121.9"/>
			<path d="M1421.5,315c-4.8,0-8.6,3.9-8.6,8.7c0,4.8,3.9,8.7,8.6,8.7c4.8,0,8.6-3.9,8.6-8.7c0-3.3-1.8-6.2-4.5-7.7
				c-0.8-0.5-1.8-0.8-2.7-1C1422.4,315.1,1421.9,315,1421.5,315"/>
			<path d="M1239.8,263.3c-4.8,0-8.6,3.9-8.6,8.7c0,4.8,3.9,8.7,8.6,8.7c4.8,0,8.6-3.9,8.6-8.7c0-2.2-0.8-4.2-2.1-5.7
				c-0.6-0.7-1.3-1.3-2.1-1.8C1243,263.8,1241.5,263.3,1239.8,263.3"/>
			<path d="M1147,525.4c4.8,0,8.6-3.9,8.6-8.7c0-4.8-3.9-8.7-8.6-8.7c-1.5,0-3,0.4-4.2,1.1c-0.8,0.5-1.6,1.1-2.2,1.8
				c-1.4,1.6-2.2,3.6-2.2,5.9C1138.4,521.5,1142.3,525.4,1147,525.4"/>
			<path fill="#808080" d="M1315,119.7l-11.9,67.5c1,0,1.9,0.2,2.8,0.5l11.9-67.3C1316.8,120.3,1315.9,120.1,1315,119.7"/>
			<path d="M1311.6,195.7c0-1.2-0.3-2.4-0.8-3.5c-0.4-0.9-0.9-1.7-1.6-2.4c-0.9-1-2.1-1.8-3.4-2.2c-0.9-0.3-1.8-0.5-2.8-0.5
				c0,0-0.1,0-0.1,0c-2.2,0-4.2,0.9-5.8,2.3c-0.7,0.6-1.3,1.4-1.8,2.2c-0.4,0.8-0.8,1.7-0.9,2.6c-0.1,0.5-0.2,1.1-0.2,1.7
				c0,0.4,0,0.8,0.1,1.2c0.1,0.4,0.1,0.8,0.2,1.2c0.3,0.9,0.6,1.8,1.2,2.6c0.2,0.3,0.4,0.5,0.6,0.8c0.6,0.7,1.3,1.3,2.1,1.8
				c1.3,0.8,2.8,1.2,4.4,1.2c3.9,0,7.1-2.6,8.2-6.1c0.3-0.8,0.4-1.7,0.4-2.6C1311.7,195.8,1311.6,195.8,1311.6,195.7"/>
			<path d="M1446.6,43.4c1.1,1.6,2.7,2.8,4.6,3.4c0.8,0.2,1.6,0.4,2.5,0.4c0.1,0,0.2,0,0.3,0c4.6-0.2,8.3-4,8.3-8.7
				c0-1.1-0.2-2.2-0.6-3.1c-0.4-0.9-0.9-1.8-1.5-2.5c-0.7-0.8-1.6-1.5-2.5-2.1c-0.8-0.4-1.7-0.7-2.7-0.9c-0.4-0.1-0.9-0.1-1.3-0.1
				c-3,0-5.7,1.6-7.2,4c-0.9,1.4-1.4,3-1.4,4.7C1445.1,40.3,1445.7,42,1446.6,43.4"/>
			<path d="M1153.8,81.4c-0.1,0.3-0.1,0.6-0.1,0.9c0,0.2,0,0.4,0,0.6c0,0.8,0.1,1.5,0.3,2.2c0.2,0.8,0.5,1.6,0.9,2.3
				c0.5,0.8,1.1,1.6,1.8,2.2c1.5,1.3,3.4,2.1,5.6,2.1c2.4,0,4.5-1,6.1-2.6c0.7-0.7,1.2-1.5,1.6-2.3c0.2-0.3,0.3-0.7,0.4-1
				c0.3-0.9,0.5-1.8,0.5-2.8c0-0.3,0-0.5,0-0.8c-0.1-1.5-0.6-2.9-1.4-4c-0.5-0.8-1.2-1.5-1.9-2.1c-1.5-1.2-3.3-1.8-5.3-1.8
				c-2.1,0-4,0.7-5.4,2c-0.7,0.6-1.4,1.3-1.9,2.1c-0.1,0.1-0.2,0.3-0.3,0.4C1154.3,79.5,1153.9,80.4,1153.8,81.4"/>
			<path d="M1315,119.7c0.9,0.4,1.8,0.6,2.7,0.6c0.2,0,0.3,0,0.5,0c4.8,0,8.6-3.9,8.6-8.7c0-0.8-0.1-1.5-0.3-2.3
				c-0.5-2-1.7-3.7-3.3-4.8c-1.4-1-3.2-1.7-5.1-1.7c-2.7,0-5.1,1.3-6.7,3.3c-1,1.2-1.6,2.7-1.8,4.3c-0.1,0.4-0.1,0.8-0.1,1.2
				C1309.7,115.3,1311.9,118.4,1315,119.7"/>
			<path fill="#808080" d="M1904.1,586.6c0.8,0.6,1.4,1.3,1.9,2.2l79.9-115.4c-0.9-0.3-1.7-0.8-2.5-1.4L1904.1,586.6z"/>
			<path fill="#808080" d="M1255.1,26.5h-5l44.4,31c0.3-0.9,0.7-1.8,1.3-2.6L1255.1,26.5z"/>
			<path d="M1302.8,68.9c3.9,0,7.2-2.6,8.2-6.2c0.2-0.8,0.4-1.7,0.4-2.6c0-0.1,0-0.2,0-0.4c-0.2-4.7-4-8.4-8.6-8.4
				c-2.8,0-5.4,1.4-6.9,3.6c-0.6,0.8-1,1.6-1.3,2.6c-0.3,0.8-0.4,1.7-0.4,2.6c0,0.8,0.1,1.6,0.3,2.3c0.3,1,0.7,1.9,1.2,2.7
				C1297.3,67.5,1299.9,68.9,1302.8,68.9"/>
			<path fill="#808080" d="M1897.3,602l-1.8,131.7c0.4-0.1,0.8-0.1,1.3-0.1c0.5,0,1,0.1,1.5,0.1l1.8-131.6c-0.4,0.1-0.8,0.1-1.3,0.1
				C1898.3,602.2,1897.8,602.1,1897.3,602"/>
			<path fill="#808080" d="M1942.8,724.2c-0.2-0.7-0.3-1.4-0.3-2.1c0-0.3,0-0.6,0-0.9l-38.5,16.4c0.5,0.8,0.9,1.7,1.1,2.6
				L1942.8,724.2z"/>
			<path fill="#808080" d="M1904.3,746.7c-0.5,0.8-1.1,1.6-1.8,2.2l80.8,66.7c0.5-0.8,1.1-1.6,1.8-2.2L1904.3,746.7z"/>
			<path fill="#808080" d="M1910.3,850.9c-0.9,0.3-1.8,0.5-2.8,0.5l20.2,105.4h2.9L1910.3,850.9z"/>
			<path fill="#808080" d="M1854.1,816.1c-0.1,1-0.3,2-0.6,2.9l45.6,21.5c0.3-0.9,0.7-1.8,1.2-2.6L1854.1,816.1z"/>
			<path d="M1854.1,815.6c0-4.8-3.9-8.7-8.6-8.7c-4.8,0-8.6,3.9-8.6,8.7c0,4.8,3.9,8.7,8.6,8.7c3.6,0,6.7-2.3,8-5.4
				c0.4-0.9,0.6-1.8,0.6-2.9C1854.1,815.9,1854.1,815.8,1854.1,815.6"/>
			<path d="M1895.5,733.7c-4.1,0.6-7.3,4.3-7.3,8.6c0,4.8,3.9,8.7,8.6,8.7c2.2,0,4.2-0.8,5.7-2.2c0.7-0.6,1.3-1.4,1.8-2.2
				c0.7-1.3,1.1-2.8,1.1-4.3c0-0.7-0.1-1.4-0.2-2c-0.2-0.9-0.6-1.8-1.1-2.6c-1.3-2-3.3-3.5-5.8-3.9c-0.5-0.1-1-0.1-1.5-0.1
				C1896.4,733.6,1895.9,733.6,1895.5,733.7"/>
			<path d="M1916,842.7c0-4.8-3.9-8.7-8.6-8.7c-3,0-5.6,1.5-7.1,3.8c-0.5,0.8-0.9,1.7-1.2,2.6c-0.2,0.7-0.3,1.5-0.3,2.3
				c0,4.8,3.9,8.7,8.6,8.7c0.1,0,0.2,0,0.2,0c1,0,1.9-0.2,2.8-0.5C1913.6,849.7,1916,846.5,1916,842.7"/>
			<path fill="#808080" d="M1580.1,191.2l-142.9,24.7c0.3,0.9,0.5,1.8,0.5,2.8l143-24.8C1580.3,193.1,1580.1,192.2,1580.1,191.2"/>
			<path fill="#808080" d="M1597.3,190.8c0,0.3,0,0.5,0,0.8l206.2-45.7c-0.3-0.9-0.5-1.8-0.6-2.8L1597,188.7
				C1597.2,189.4,1597.3,190.1,1597.3,190.8"/>
			<path fill="#808080" d="M1822.7,262.8c0.1-1,0.3-1.9,0.6-2.8l-134.5-31.5c-0.1,1-0.3,1.9-0.6,2.8L1822.7,262.8z"/>
			<path fill="#808080" d="M1824.5,268.7l-166,66.1c0.6,0.7,1,1.6,1.4,2.5l167-66.5C1825.9,270.2,1825.1,269.5,1824.5,268.7"/>
			<path fill="#808080" d="M1874.6,379l73.4-43.2c-0.6-0.7-1.1-1.6-1.4-2.5l-74.2,43.7C1873.2,377.5,1873.9,378.2,1874.6,379"/>
			<path fill="#808080" d="M1867.8,393.1c-0.8,0-1.6-0.1-2.3-0.3L1847.6,554c0.1,0,0.3,0,0.4,0c0.8,0,1.6,0.1,2.3,0.3l17.5-158.4
				l25.5,190.7c0.8-0.6,1.7-1.1,2.6-1.5l-25.7-192.5C1869.5,392.9,1868.6,393.1,1867.8,393.1"/>
			<path fill="#808080" d="M1748.2,486.5c-0.4,0.9-1,1.7-1.6,2.3l93.8,69.9c0.4-0.9,1-1.6,1.7-2.3L1748.2,486.5z"/>
			<path fill="#808080" d="M1677.2,236.2l-27.6,95.5c0.7-0.2,1.4-0.3,2.1-0.3c0.3,0,0.6,0,0.9,0l27.4-94.8
				C1679,236.7,1678.1,236.5,1677.2,236.2"/>
			<path fill="#808080" d="M1643.2,338.6l-206.1-116.9c-0.3,0.9-0.8,1.7-1.4,2.5l206.6,117.2l0.7-1.2v0
				C1643.1,339.7,1643.1,339.2,1643.2,338.6"/>
			<path fill="#808080" d="M1660.3,340.4c0,1-0.2,1.9-0.5,2.8l199.6,39.1c0.2-1,0.6-1.9,1.1-2.7L1660.3,340.4z"/>
			<path fill="#808080" d="M1861.7,390.5c-0.7-0.7-1.2-1.5-1.6-2.3l-117.5,86c1.1,0.3,2,0.7,2.9,1.4L1861.7,390.5z"/>
			<path fill="#808080" d="M1735.7,475.4l-17-35.7c-0.8,0.5-1.6,1-2.5,1.2l17.4,36.5C1734.2,476.7,1734.9,476,1735.7,475.4"/>
			<path fill="#808080" d="M1633.9,427.2c0.9,0.4,1.8,1,2.5,1.7l16.6-79.6l-1.4-0.3c-0.5,0-0.9,0-1.4-0.1L1633.9,427.2z"/>
			<path d="M1680.2,236.7c3.6,0,6.7-2.2,8-5.4c0.4-0.9,0.6-1.8,0.6-2.8c0-0.2,0-0.4,0-0.5c0-1.2-0.3-2.4-0.7-3.5
				c-0.4-0.9-0.9-1.7-1.5-2.4c-1.6-1.8-3.9-2.9-6.4-2.9c-4.8,0-8.6,3.9-8.6,8.7c0,3.8,2.4,7,5.7,8.2c0.9,0.3,1.8,0.5,2.8,0.5
				C1680.1,236.7,1680.1,236.7,1680.2,236.7"/>
			<path d="M1822.7,263.3c0,2,0.7,3.9,1.8,5.4c0.6,0.8,1.4,1.6,2.4,2.1c1.3,0.8,2.8,1.3,4.4,1.3c0.2,0,0.4,0,0.6,0
				c1-0.1,1.9-0.3,2.7-0.6c1.6-0.7,2.9-1.8,3.9-3.2c0.5-0.8,0.9-1.7,1.1-2.6c0.2-0.7,0.3-1.5,0.3-2.2c0-1-0.2-2-0.5-2.9
				c-0.3-0.9-0.8-1.8-1.3-2.5c-1.6-2.1-4-3.4-6.8-3.4c-3.6,0-6.7,2.2-8,5.4c-0.3,0.9-0.6,1.8-0.6,2.8
				C1822.7,262.9,1822.7,263.1,1822.7,263.3"/>
			<path d="M1865.4,392.7c0.7,0.2,1.5,0.3,2.3,0.3c0.9,0,1.7-0.1,2.5-0.4c3.5-1.1,6.1-4.4,6.1-8.4c0-2-0.7-3.9-1.8-5.4
				c-0.6-0.8-1.3-1.5-2.2-2c-1.3-0.9-2.9-1.4-4.6-1.4c-0.4,0-0.8,0-1.2,0.1c-1,0.1-1.9,0.4-2.7,0.8c-1.4,0.7-2.6,1.8-3.4,3.1
				c-0.5,0.8-0.9,1.7-1.1,2.7c-0.1,0.6-0.2,1.3-0.2,2c0,1.4,0.3,2.7,0.9,3.9c0.4,0.9,1,1.6,1.6,2.3
				C1862.7,391.6,1864,392.3,1865.4,392.7"/>
			<path d="M1660.3,340.2c0-1-0.2-2-0.5-2.9c-0.3-0.9-0.8-1.8-1.4-2.5c-1.4-1.8-3.5-3-5.9-3.3c-0.3,0-0.6,0-0.9,0
				c-0.7,0-1.4,0.1-2.1,0.3c-0.9,0.2-1.7,0.6-2.5,1.1c-0.9,0.5-1.6,1.2-2.2,2c-0.8,1.1-1.4,2.4-1.7,3.8c-0.1,0.5-0.1,1-0.1,1.5
				c0,4.3,3.1,7.9,7.2,8.6c0.5,0.1,0.9,0.1,1.4,0.1h0c3.7,0,6.9-2.4,8.1-5.7c0.3-0.9,0.5-1.8,0.5-2.8
				C1660.3,340.4,1660.3,340.3,1660.3,340.2"/>
			<path d="M1588.7,199.6c0.7,0,1.4-0.1,2.1-0.3c0.9-0.2,1.8-0.6,2.6-1.1c2.2-1.4,3.6-3.8,3.9-6.6c0-0.3,0-0.5,0-0.8
				c0-0.7-0.1-1.4-0.3-2.1c-0.1-0.5-0.3-1-0.5-1.5c-0.4-0.9-0.9-1.7-1.6-2.4c-1.6-1.7-3.8-2.8-6.3-2.8c-2.8,0-5.3,1.4-6.9,3.5
				c-0.6,0.8-1,1.6-1.3,2.5c-0.3,0.8-0.4,1.8-0.4,2.7c0,0.1,0,0.2,0,0.4c0,1,0.2,1.9,0.6,2.8C1581.9,197.3,1585,199.6,1588.7,199.6"
				/>
			<path d="M1437.6,218.8C1437.6,218.8,1437.6,218.8,1437.6,218.8c0-1-0.2-2-0.5-2.9c-0.7-2.1-2.1-3.8-4-4.8c-0.8-0.5-1.8-0.8-2.7-1
				c-0.5-0.1-0.9-0.1-1.4-0.1c-2.1,0-4,0.8-5.5,2.1c-0.8,0.7-1.5,1.6-2.1,2.6c-0.6,1.2-1,2.6-1,4.1c0,4.8,3.9,8.7,8.6,8.7
				c0.1,0,0.1,0,0.2,0c1,0,2-0.2,2.9-0.6c1.5-0.6,2.7-1.5,3.7-2.7c0.6-0.7,1-1.6,1.4-2.5C1437.4,220.8,1437.6,219.8,1437.6,218.8"/>
			<path d="M1802.8,142.7c0,0.2,0,0.3,0,0.4c0,1,0.3,1.9,0.6,2.8c0,0.1,0.1,0.2,0.1,0.2c0.4,0.9,0.9,1.7,1.5,2.4
				c1.6,1.8,3.9,2.9,6.4,2.9c1.5,0,2.9-0.4,4.1-1.1c0.8-0.5,1.6-1.1,2.2-1.8c0.1-0.1,0.1-0.1,0.2-0.2c0.6-0.7,1.1-1.5,1.5-2.4
				c0.4-1,0.6-2.1,0.6-3.3c0-1.3-0.3-2.6-0.8-3.7c-0.4-0.9-0.9-1.7-1.6-2.4c-1.3-1.4-3-2.3-5-2.6c-0.4-0.1-0.8-0.1-1.3-0.1
				c-0.5,0-1,0.1-1.5,0.1c-2.1,0.4-3.9,1.5-5.2,3.1c-0.6,0.7-1,1.6-1.4,2.5C1803,140.6,1802.8,141.6,1802.8,142.7"/>
			<path d="M1856.6,562.7c0-4-2.7-7.4-6.3-8.4c-0.7-0.2-1.5-0.3-2.3-0.3c-0.2,0-0.3,0-0.4,0c-2.2,0.1-4.1,1-5.6,2.5
				c-0.7,0.7-1.2,1.4-1.7,2.3c-0.6,1.2-0.9,2.5-0.9,4c0,4.8,3.9,8.7,8.6,8.7c2.6,0,5-1.2,6.5-3.1c0.6-0.7,1.1-1.5,1.5-2.4
				C1856.4,565,1856.6,563.9,1856.6,562.7"/>
			<path d="M1749.1,482.7c0-2.9-1.4-5.5-3.6-7.1c-0.9-0.6-1.8-1.1-2.9-1.4c-0.7-0.2-1.4-0.3-2.1-0.3c-1.8,0-3.4,0.5-4.8,1.5
				c-0.8,0.6-1.5,1.3-2.1,2.1c-1.1,1.5-1.7,3.3-1.7,5.2c0,4.8,3.9,8.7,8.6,8.7c2.4,0,4.6-1,6.1-2.6c0.7-0.7,1.2-1.5,1.6-2.3
				C1748.8,485.4,1749.1,484.1,1749.1,482.7"/>
			<path d="M1722.4,432.6c0-4.8-3.9-8.7-8.6-8.7c-4.8,0-8.6,3.9-8.6,8.7c0,4.8,3.9,8.7,8.6,8.7c0.8,0,1.7-0.1,2.4-0.4
				c0.9-0.3,1.8-0.7,2.5-1.2C1720.9,438.1,1722.4,435.5,1722.4,432.6"/>
			<path d="M1630.6,426.5c-4.8,0-8.6,3.9-8.6,8.7c0,4.8,3.9,8.7,8.6,8.7c4.8,0,8.6-3.9,8.6-8.7c0-2.5-1.1-4.8-2.8-6.4
				c-0.7-0.7-1.6-1.3-2.5-1.7C1632.9,426.7,1631.8,426.5,1630.6,426.5"/>
			<path d="M1904.1,586.6c-0.8-0.7-1.8-1.2-2.8-1.5c-0.8-0.2-1.6-0.4-2.5-0.4c-0.1,0-0.2,0-0.3,0c-0.9,0-1.7,0.2-2.5,0.5
				c-1,0.3-1.9,0.8-2.6,1.5c-0.5,0.4-1,0.9-1.4,1.4c-0.6,0.7-1,1.6-1.4,2.5c-0.3,0.9-0.5,1.9-0.5,2.9c0,1.5,0.4,2.9,1,4.1
				c0.5,0.9,1.1,1.7,1.8,2.4c1.2,1.1,2.6,1.8,4.3,2.1c0.5,0.1,1,0.1,1.5,0.1c0.4,0,0.9,0,1.3-0.1c2-0.3,3.7-1.3,5-2.7
				c0.6-0.7,1.2-1.5,1.6-2.4c0-0.1,0.1-0.2,0.1-0.3c0.4-0.9,0.6-1.9,0.6-3c0-0.1,0-0.2,0-0.3c0-1.7-0.5-3.3-1.4-4.7
				C1905.5,587.9,1904.9,587.2,1904.1,586.6"/>
		</g>
	</g>
	
		<line clip-path="url(#SVGID_2_)" fill="none" stroke="#808080" stroke-width="2" stroke-miterlimit="10" x1="1821.5" y1="20" x2="1823.9" y2="160.8"/>
	
		<line clip-path="url(#SVGID_2_)" fill="none" stroke="#808080" stroke-width="2" stroke-miterlimit="10" x1="1823.9" y1="160.8" x2="2016.7" y2="27.1"/>
	
		<line clip-path="url(#SVGID_2_)" fill="none" stroke="#808080" stroke-width="2" stroke-miterlimit="10" x1="1823.9" y1="27.5" x2="1915.1" y2="97.9"/>
	
		<line clip-path="url(#SVGID_2_)" fill="none" stroke="#808080" stroke-width="2" stroke-miterlimit="10" x1="1915.1" y1="97.9" x2="1929.6" y2="27.5"/>
	
		<line clip-path="url(#SVGID_2_)" fill="none" stroke="#808080" stroke-width="2" stroke-miterlimit="10" x1="1823.9" y1="160.8" x2="2014.1" y2="279.5"/>
	
		<line clip-path="url(#SVGID_2_)" fill="none" stroke="#808080" stroke-width="2" stroke-miterlimit="10" x1="1913.4" y1="219" x2="1994.1" y2="515.2"/>
	
		<line clip-path="url(#SVGID_2_)" fill="none" stroke="#808080" stroke-width="2" stroke-miterlimit="10" x1="1853.8" y1="503.8" x2="2014.1" y2="602"/>
	
		<line clip-path="url(#SVGID_2_)" fill="none" stroke="#808080" stroke-width="2" stroke-miterlimit="10" x1="1165.3" y1="7.8" x2="1408.8" y2="204.2"/>
	
		<line clip-path="url(#SVGID_2_)" fill="none" stroke="#808080" stroke-width="2" stroke-miterlimit="10" x1="1532.9" y1="73.3" x2="1698.7" y2="30"/>
	
		<line clip-path="url(#SVGID_2_)" fill="none" stroke="#808080" stroke-width="2" stroke-miterlimit="10" x1="1819.9" y1="27.5" x2="1739.3" y2="112.6"/>
	
		<line clip-path="url(#SVGID_2_)" fill="none" stroke="#808080" stroke-width="2" stroke-miterlimit="10" x1="1739.3" y1="112.6" x2="1697.4" y2="27.5"/>
	
		<line clip-path="url(#SVGID_2_)" fill="none" stroke="#808080" stroke-width="2" stroke-miterlimit="10" x1="1295.9" y1="111" x2="1181.5" y2="197.7"/>
	
		<line clip-path="url(#SVGID_2_)" fill="none" stroke="#808080" stroke-width="2" stroke-miterlimit="10" x1="1181.5" y1="197.7" x2="1408.8" y2="204.2"/>
	
		<line clip-path="url(#SVGID_2_)" fill="none" stroke="#808080" stroke-width="2" stroke-miterlimit="10" x1="1328.2" y1="138.8" x2="1739.3" y2="112.6"/>
	
		<line clip-path="url(#SVGID_2_)" fill="none" stroke="#808080" stroke-width="2" stroke-miterlimit="10" x1="1739.3" y1="112.6" x2="1823.9" y2="160.8"/>
	
		<line clip-path="url(#SVGID_2_)" fill="none" stroke="#808080" stroke-width="2" stroke-miterlimit="10" x1="1913.4" y1="219" x2="2021.5" y2="20.9"/>
	
		<line clip-path="url(#SVGID_2_)" fill="none" stroke="#808080" stroke-width="2" stroke-miterlimit="10" x1="1915.1" y1="97.9" x2="1913.4" y2="219"/>
	
		<line clip-path="url(#SVGID_2_)" fill="none" stroke="#808080" stroke-width="2" stroke-miterlimit="10" x1="1913.4" y1="219" x2="1840.1" y2="259.3"/>
	
		<line clip-path="url(#SVGID_2_)" fill="none" stroke="#808080" stroke-width="2" stroke-miterlimit="10" x1="1823.9" y1="160.8" x2="1940.9" y2="313.9"/>
	
		<line clip-path="url(#SVGID_2_)" fill="none" stroke="#808080" stroke-width="2" stroke-miterlimit="10" x1="1913.4" y1="219" x2="2014.1" y2="145.3"/>
	
		<line clip-path="url(#SVGID_2_)" fill="none" stroke="#808080" stroke-width="2" stroke-miterlimit="10" x1="1739.3" y1="112.6" x2="1642.6" y2="201"/>
	
		<line clip-path="url(#SVGID_2_)" fill="none" stroke="#808080" stroke-width="2" stroke-miterlimit="10" x1="1700" y1="25.3" x2="1521.8" y2="126.7"/>
	
		<line clip-path="url(#SVGID_2_)" fill="none" stroke="#808080" stroke-width="2" stroke-miterlimit="10" x1="1739.3" y1="112.6" x2="1609.2" y2="79.1"/>
	
		<line clip-path="url(#SVGID_2_)" fill="none" stroke="#808080" stroke-width="2" stroke-miterlimit="10" x1="1533.6" y1="76.4" x2="1427.2" y2="30.5"/>
	
		<line clip-path="url(#SVGID_2_)" fill="none" stroke="#808080" stroke-width="2" stroke-miterlimit="10" x1="1520.1" y1="126.3" x2="1642.6" y2="201"/>
	
		<line clip-path="url(#SVGID_2_)" fill="none" stroke="#808080" stroke-width="2" stroke-miterlimit="10" x1="1520.4" y1="127.6" x2="1408.8" y2="204.2"/>
	
		<line clip-path="url(#SVGID_2_)" fill="none" stroke="#808080" stroke-width="2" stroke-miterlimit="10" x1="1295.9" y1="113.3" x2="1532.9" y2="75.7"/>
	
		<line clip-path="url(#SVGID_2_)" fill="none" stroke="#808080" stroke-width="2" stroke-miterlimit="10" x1="1521.4" y1="126.7" x2="1532.9" y2="73.3"/>
	
		<line clip-path="url(#SVGID_2_)" fill="none" stroke="#808080" stroke-width="2" stroke-miterlimit="10" x1="1532.8" y1="76" x2="1196" y2="31.3"/>
	
		<line clip-path="url(#SVGID_2_)" fill="none" stroke="#808080" stroke-width="2" stroke-miterlimit="10" x1="1295.9" y1="111" x2="1345.9" y2="48.8"/>
	
		<line clip-path="url(#SVGID_2_)" fill="none" stroke="#808080" stroke-width="2" stroke-miterlimit="10" x1="1531.8" y1="75.7" x2="1547.5" y2="27.5"/>
	
		<line clip-path="url(#SVGID_2_)" fill="none" stroke="#808080" stroke-width="2" stroke-miterlimit="10" x1="1520.4" y1="127.6" x2="1507.1" y2="310.6"/>
	
		<line clip-path="url(#SVGID_2_)" fill="none" stroke="#808080" stroke-width="2" stroke-miterlimit="10" x1="1408.8" y1="204.2" x2="1234.7" y2="286.1"/>
	
		<line clip-path="url(#SVGID_2_)" fill="none" stroke="#808080" stroke-width="2" stroke-miterlimit="10" x1="1186.3" y1="196.1" x2="1050.9" y2="268.8"/>
	
		<line clip-path="url(#SVGID_2_)" fill="none" stroke="#808080" stroke-width="2" stroke-miterlimit="10" x1="1104.1" y1="240.3" x2="1281.4" y2="466.1"/>
	
		<line clip-path="url(#SVGID_2_)" fill="none" stroke="#808080" stroke-width="2" stroke-miterlimit="10" x1="1186.3" y1="196.1" x2="1234.7" y2="286.1"/>
	
		<line clip-path="url(#SVGID_2_)" fill="none" stroke="#808080" stroke-width="2" stroke-miterlimit="10" x1="1097.7" y1="237" x2="1234.7" y2="286.1"/>
	
		<line clip-path="url(#SVGID_2_)" fill="none" stroke="#808080" stroke-width="2" stroke-miterlimit="10" x1="1408.8" y1="204.2" x2="1513.5" y2="219.6"/>
	
		<line clip-path="url(#SVGID_2_)" fill="none" stroke="#808080" stroke-width="2" stroke-miterlimit="10" x1="1408.8" y1="204.2" x2="1357.2" y2="266.4"/>
	
		<line clip-path="url(#SVGID_2_)" fill="none" stroke="#808080" stroke-width="2" stroke-miterlimit="10" x1="1183.6" y1="196.2" x2="1104.1" y2="27.5"/>
	
		<line clip-path="url(#SVGID_2_)" fill="none" stroke="#808080" stroke-width="2" stroke-miterlimit="10" x1="1099.8" y1="24.3" x2="1291.7" y2="111.7"/>
	
		<line clip-path="url(#SVGID_2_)" fill="none" stroke="#808080" stroke-width="2" stroke-miterlimit="10" x1="1186.3" y1="196.1" x2="1097.7" y2="153.5"/>
	
		<line clip-path="url(#SVGID_2_)" fill="none" stroke="#808080" stroke-width="2" stroke-miterlimit="10" x1="1293.8" y1="112" x2="1152.4" y2="125.7"/>
	
		<line clip-path="url(#SVGID_2_)" fill="none" stroke="#808080" stroke-width="2" stroke-miterlimit="10" x1="1894.1" y1="531.6" x2="1690.9" y2="605.3"/>
	
		<line clip-path="url(#SVGID_2_)" fill="none" stroke="#808080" stroke-width="2" stroke-miterlimit="10" x1="1894.1" y1="531.6" x2="1994.1" y2="515.2"/>
	
		<line clip-path="url(#SVGID_2_)" fill="none" stroke="#808080" stroke-width="2" stroke-miterlimit="10" x1="1921.5" y1="836.1" x2="1818.3" y2="860.6"/>
	
		<line clip-path="url(#SVGID_2_)" fill="none" stroke="#808080" stroke-width="2" stroke-miterlimit="10" x1="1897.8" y1="536.3" x2="1970.4" y2="713.8"/>
	
		<line clip-path="url(#SVGID_2_)" fill="none" stroke="#808080" stroke-width="2" stroke-miterlimit="10" x1="1642.6" y1="201" x2="1690.9" y2="322.1"/>
	
		<line clip-path="url(#SVGID_2_)" fill="none" stroke="#808080" stroke-width="2" stroke-miterlimit="10" x1="1823.9" y1="160.8" x2="1716.7" y2="230.4"/>
	
		<line clip-path="url(#SVGID_2_)" fill="none" stroke="#808080" stroke-width="2" stroke-miterlimit="10" x1="1839.3" y1="258.3" x2="1940.9" y2="313.9"/>
	
		<line clip-path="url(#SVGID_2_)" fill="none" stroke="#808080" stroke-width="2" stroke-miterlimit="10" x1="1839.3" y1="258.3" x2="1869.9" y2="358.1"/>
	<path clip-path="url(#SVGID_2_)" d="M1880.8,244.2c-3.9,0-7-3.2-7-7.1c0-3.9,3.1-7.1,7-7.1c3.9,0,7,3.2,7,7.1
		C1887.8,241,1884.7,244.2,1880.8,244.2"/>
	<path clip-path="url(#SVGID_2_)" d="M1691,612.4c-3.9,0-7-3.2-7-7.1c0-3.9,3.1-7.1,7-7.1c3.9,0,7,3.2,7,7.1
		C1698,609.2,1694.8,612.4,1691,612.4"/>
	<path clip-path="url(#SVGID_2_)" d="M1813.9,870.9c-3.9,0-7-3.2-7-7.1c0-3.9,3.1-7.1,7-7.1c3.9,0,7,3.2,7,7.1
		C1821,867.7,1817.8,870.9,1813.9,870.9"/>
	<path clip-path="url(#SVGID_2_)" d="M1916.1,225.2c-3.9,0-7-3.2-7-7.1c0-3.9,3.1-7.1,7-7.1c3.9,0,7,3.2,7,7.1
		C1923.1,222,1920,225.2,1916.1,225.2"/>
	<path clip-path="url(#SVGID_2_)" d="M1916.1,107.7c-3.9,0-7-3.2-7-7.1c0-3.9,3.1-7.1,7-7.1c3.9,0,7,3.2,7,7.1
		C1923.1,104.5,1920,107.7,1916.1,107.7"/>
	<path clip-path="url(#SVGID_2_)" d="M1739.3,119.7c-3.9,0-7-3.2-7-7.1c0-3.9,3.1-7.1,7-7.1c3.9,0,7,3.2,7,7.1
		C1746.4,116.5,1743.2,119.7,1739.3,119.7"/>
	<path clip-path="url(#SVGID_2_)" d="M1521.8,133.8c-3.9,0-7-3.2-7-7.1c0-3.9,3.1-7.1,7-7.1c3.9,0,7,3.2,7,7.1
		C1528.8,130.6,1525.7,133.8,1521.8,133.8"/>
	<path clip-path="url(#SVGID_2_)" d="M1609.2,86.2c-3.9,0-7-3.2-7-7.1c0-3.9,3.1-7.1,7-7.1c3.9,0,7,3.2,7,7.1
		C1616.3,83,1613.1,86.2,1609.2,86.2"/>
	<path clip-path="url(#SVGID_2_)" d="M1696.8,38.8c-3.9,0-7-3.2-7-7.1c0-3.9,3.1-7.1,7-7.1c3.9,0,7,3.2,7,7.1
		C1703.8,35.6,1700.7,38.8,1696.8,38.8"/>
	<path clip-path="url(#SVGID_2_)" d="M1329.8,147c-3.9,0-7-3.2-7-7.1c0-3.9,3.1-7.1,7-7.1c3.9,0,7,3.2,7,7.1
		C1336.9,143.8,1333.7,147,1329.8,147"/>
	<path clip-path="url(#SVGID_2_)" d="M1505.5,315.8c-3.9,0-7-3.2-7-7.1c0-3.9,3.1-7.1,7-7.1c3.9,0,7,3.2,7,7.1
		C1512.5,312.6,1509.4,315.8,1505.5,315.8"/>
	<path clip-path="url(#SVGID_2_)" d="M1357.2,273.6c-3.9,0-7-3.2-7-7.1c0-3.9,3.1-7.1,7-7.1c3.9,0,7,3.2,7,7.1
		C1364.2,270.4,1361.1,273.6,1357.2,273.6"/>
	<path clip-path="url(#SVGID_2_)" d="M1234.7,293.2c-3.9,0-7-3.2-7-7.1c0-3.9,3.1-7.1,7-7.1c3.9,0,7,3.2,7,7.1
		C1241.7,290,1238.6,293.2,1234.7,293.2"/>
	<path clip-path="url(#SVGID_2_)" d="M1281.4,473.3c-3.9,0-7-3.2-7-7.1c0-3.9,3.1-7.1,7-7.1c3.9,0,7,3.2,7,7.1
		C1288.5,470.1,1285.3,473.3,1281.4,473.3"/>
	<path clip-path="url(#SVGID_2_)" d="M1185.4,205.1c-3.9,0-7-3.2-7-7.1c0-3.9,3.1-7.1,7-7.1c3.9,0,7,3.2,7,7.1
		C1192.4,201.9,1189.3,205.1,1185.4,205.1"/>
	<path clip-path="url(#SVGID_2_)" d="M1097.7,160.6c-3.9,0-7-3.2-7-7.1c0-3.9,3.1-7.1,7-7.1c3.9,0,7,3.2,7,7.1
		C1104.8,157.5,1101.6,160.6,1097.7,160.6"/>
	<path clip-path="url(#SVGID_2_)" d="M1099.8,31.5c-3.9,0-7-3.2-7-7.1c0-3.9,3.1-7.1,7-7.1c3.9,0,7,3.2,7,7.1
		C1106.9,28.3,1103.7,31.5,1099.8,31.5"/>
	<path clip-path="url(#SVGID_2_)" d="M1153.6,132.8c-3.9,0-7-3.2-7-7.1c0-3.9,3.1-7.1,7-7.1c3.9,0,7,3.2,7,7.1
		C1160.6,129.6,1157.5,132.8,1153.6,132.8"/>
	<path clip-path="url(#SVGID_2_)" d="M1104.1,247.4c-3.9,0-7-3.2-7-7.1c0-3.9,3.1-7.1,7-7.1c3.9,0,7,3.2,7,7.1
		C1111.1,244.2,1108,247.4,1104.1,247.4"/>
	<path clip-path="url(#SVGID_2_)" d="M1050.9,276c-3.9,0-7-3.2-7-7.1c0-3.9,3.1-7.1,7-7.1c3.9,0,7,3.2,7,7.1
		C1058,272.8,1054.8,276,1050.9,276"/>
	<path clip-path="url(#SVGID_2_)" d="M1427.2,37.7c-3.9,0-7-3.2-7-7.1c0-3.9,3.1-7.1,7-7.1c3.9,0,7,3.2,7,7.1
		C1434.2,34.5,1431.1,37.7,1427.2,37.7"/>
	<path clip-path="url(#SVGID_2_)" d="M1197.6,38.3c-5.1,1.2-9.6-3.4-8.5-8.6c0.6-2.6,2.7-4.7,5.2-5.3c5.1-1.2,9.6,3.4,8.5,8.6
		C1202.3,35.6,1200.2,37.7,1197.6,38.3"/>
	<path clip-path="url(#SVGID_2_)" d="M1167,14.8c-5.1,1.2-9.6-3.4-8.5-8.6c0.6-2.6,2.7-4.7,5.2-5.3c5.1-1.2,9.6,3.4,8.5,8.6
		C1171.6,12.1,1169.5,14.2,1167,14.8"/>
	<path clip-path="url(#SVGID_2_)" d="M1821.8,33.6c-3.9,0-7-3.2-7-7.1c0-3.9,3.1-7.1,7-7.1c3.9,0,7,3.2,7,7.1
		C1828.8,30.4,1825.7,33.6,1821.8,33.6"/>
	
		<line clip-path="url(#SVGID_2_)" fill="none" stroke="#808080" stroke-width="2" stroke-miterlimit="10" x1="1408.8" y1="204.2" x2="1421.3" y2="133.1"/>
	<path clip-path="url(#SVGID_2_)" d="M1408.8,211.4c-3.9,0-7-3.2-7-7.1c0-3.9,3.1-7.1,7-7.1c3.9,0,7,3.2,7,7.1
		C1415.8,208.2,1412.7,211.4,1408.8,211.4"/>
	
		<line clip-path="url(#SVGID_2_)" fill="none" stroke="#808080" stroke-width="2" stroke-miterlimit="10" x1="1421.3" y1="133.1" x2="1530.3" y2="76.2"/>
	<path clip-path="url(#SVGID_2_)" d="M1531.8,82.8c-3.9,0-7-3.2-7-7.1c0-3.9,3.1-7.1,7-7.1c3.9,0,7,3.2,7,7.1
		C1538.9,79.6,1535.7,82.8,1531.8,82.8"/>
	<path clip-path="url(#SVGID_2_)" d="M1293.8,119.1c-3.9,0-7-3.2-7-7.1c0-3.9,3.1-7.1,7-7.1c3.9,0,7,3.2,7,7.1
		C1300.9,115.9,1297.7,119.1,1293.8,119.1"/>
	<path clip-path="url(#SVGID_2_)" d="M1421.3,142.6c-3.9,0-7-3.2-7-7.1c0-3.9,3.1-7.1,7-7.1c3.9,0,7,3.2,7,7.1
		C1428.3,139.4,1425.1,142.6,1421.3,142.6"/>
	
		<line clip-path="url(#SVGID_2_)" fill="none" stroke="#808080" stroke-width="2" stroke-miterlimit="10" x1="1896.8" y1="529.3" x2="1967.5" y2="427.2"/>
	<path clip-path="url(#SVGID_2_)" d="M1345.4,58.5c-3.9,0-7-3.2-7-7.1c0-3.9,3.1-7.1,7-7.1c3.9,0,7,3.2,7,7.1
		C1352.5,55.3,1349.3,58.5,1345.4,58.5"/>
	
		<line clip-path="url(#SVGID_2_)" fill="none" stroke="#808080" stroke-width="2" stroke-miterlimit="10" x1="1895.3" y1="528.9" x2="1893.6" y2="650.4"/>
	
		<line clip-path="url(#SVGID_2_)" fill="none" stroke="#808080" stroke-width="2" stroke-miterlimit="10" x1="1893.6" y1="650.4" x2="2007.1" y2="602"/>
	
		<line clip-path="url(#SVGID_2_)" fill="none" stroke="#808080" stroke-width="2" stroke-miterlimit="10" x1="1893.6" y1="650.4" x2="1970.4" y2="713.8"/>
	
		<line clip-path="url(#SVGID_2_)" fill="none" stroke="#808080" stroke-width="2" stroke-miterlimit="10" x1="1902.2" y1="732.4" x2="1921.7" y2="834"/>
	
		<line clip-path="url(#SVGID_2_)" fill="none" stroke="#808080" stroke-width="2" stroke-miterlimit="10" x1="1902.2" y1="732.4" x2="1854.1" y2="709.7"/>
	
		<line clip-path="url(#SVGID_2_)" fill="none" stroke="#808080" stroke-width="2" stroke-miterlimit="10" x1="1922.8" y1="957.8" x2="1881.6" y2="912.1"/>
	<path clip-path="url(#SVGID_2_)" d="M1921.5,843.2c-3.9,0-7-3.2-7-7.1c0-3.9,3.1-7.1,7-7.1c3.9,0,7,3.2,7,7.1
		C1928.5,840,1925.4,843.2,1921.5,843.2"/>
	<path clip-path="url(#SVGID_2_)" d="M1881.6,919.2c-3.9,0-7-3.2-7-7.1c0-3.9,3.1-7.1,7-7.1c3.9,0,7,3.2,7,7.1
		C1888.6,916,1885.5,919.2,1881.6,919.2"/>
	<path clip-path="url(#SVGID_2_)" d="M1545.9,936.1c-3.9,0-7-3.2-7-7.1c0-3.9,3.1-7.1,7-7.1c3.9,0,7,3.2,7,7.1
		C1552.9,932.9,1549.8,936.1,1545.9,936.1"/>
	<path clip-path="url(#SVGID_2_)" d="M1851.7,717.4c-3.9,0-7-3.2-7-7.1c0-3.9,3.1-7.1,7-7.1c3.9,0,7,3.2,7,7.1
		C1858.8,714.2,1855.6,717.4,1851.7,717.4"/>
	<path clip-path="url(#SVGID_2_)" d="M1893.6,657.6c-3.9,0-7-3.2-7-7.1c0-3.9,3.1-7.1,7-7.1c3.9,0,7,3.2,7,7.1
		C1900.7,654.4,1897.5,657.6,1893.6,657.6"/>
	<path clip-path="url(#SVGID_2_)" d="M1902.2,739.6c-3.9,0-7-3.2-7-7.1c0-3.9,3.1-7.1,7-7.1c3.9,0,7,3.2,7,7.1
		C1909.3,736.4,1906.1,739.6,1902.2,739.6"/>
	
		<line clip-path="url(#SVGID_2_)" fill="none" stroke="#808080" stroke-width="2" stroke-miterlimit="10" x1="1511.7" y1="222.9" x2="1638.4" y2="201"/>
	
		<line clip-path="url(#SVGID_2_)" fill="none" stroke="#808080" stroke-width="2" stroke-miterlimit="10" x1="1642.6" y1="201" x2="1823.9" y2="160.8"/>
	
		<line clip-path="url(#SVGID_2_)" fill="none" stroke="#808080" stroke-width="2" stroke-miterlimit="10" x1="1840.1" y1="259.3" x2="1716.7" y2="230.4"/>
	
		<line clip-path="url(#SVGID_2_)" fill="none" stroke="#808080" stroke-width="2" stroke-miterlimit="10" x1="1690.9" y1="322.1" x2="1841" y2="262.3"/>
	
		<line clip-path="url(#SVGID_2_)" fill="none" stroke="#808080" stroke-width="2" stroke-miterlimit="10" x1="1870.1" y1="355.5" x2="1940.9" y2="313.9"/>
	
		<line clip-path="url(#SVGID_2_)" fill="none" stroke="#808080" stroke-width="2" stroke-miterlimit="10" x1="1892.5" y1="527.1" x2="1869.9" y2="358.1"/>
	
		<line clip-path="url(#SVGID_2_)" fill="none" stroke="#808080" stroke-width="2" stroke-miterlimit="10" x1="1853.8" y1="503.8" x2="1869.9" y2="358.1"/>
	
		<line clip-path="url(#SVGID_2_)" fill="none" stroke="#808080" stroke-width="2" stroke-miterlimit="10" x1="1853.8" y1="503.8" x2="1762.2" y2="435.5"/>
	
		<line clip-path="url(#SVGID_2_)" fill="none" stroke="#808080" stroke-width="2" stroke-miterlimit="10" x1="1716.8" y1="232.8" x2="1690.9" y2="322.1"/>
	
		<line clip-path="url(#SVGID_2_)" fill="none" stroke="#808080" stroke-width="2" stroke-miterlimit="10" x1="1511.7" y1="222.9" x2="1686.4" y2="322.1"/>
	
		<line clip-path="url(#SVGID_2_)" fill="none" stroke="#808080" stroke-width="2" stroke-miterlimit="10" x1="1693.5" y1="322.1" x2="1868.5" y2="356.4"/>
	
		<line clip-path="url(#SVGID_2_)" fill="none" stroke="#808080" stroke-width="2" stroke-miterlimit="10" x1="1869.9" y1="358.1" x2="1761.3" y2="437.6"/>
	
		<line clip-path="url(#SVGID_2_)" fill="none" stroke="#808080" stroke-width="2" stroke-miterlimit="10" x1="1762.3" y1="435.5" x2="1744.1" y2="397.5"/>
	
		<line clip-path="url(#SVGID_2_)" fill="none" stroke="#808080" stroke-width="2" stroke-miterlimit="10" x1="1693.5" y1="329.2" x2="1678.9" y2="399.2"/>
	
		<line clip-path="url(#SVGID_2_)" fill="none" stroke="#808080" stroke-width="2" stroke-miterlimit="10" x1="1610.1" y1="962.7" x2="1551.7" y2="931.3"/>
	
		<line clip-path="url(#SVGID_2_)" fill="none" stroke="#808080" stroke-width="2" stroke-miterlimit="10" x1="1610.1" y1="962.7" x2="1747.6" y2="938.2"/>
	<path clip-path="url(#SVGID_2_)" d="M1716.7,237.6c-3.9,0-7-3.2-7-7.1c0-3.9,3.1-7.1,7-7.1c3.9,0,7,3.2,7,7.1
		C1723.8,234.4,1720.6,237.6,1716.7,237.6"/>
	<path clip-path="url(#SVGID_2_)" d="M1840.1,266.4c-3.9,0-7-3.2-7-7.1c0-3.9,3.1-7.1,7-7.1c3.9,0,7,3.2,7,7.1
		C1847.2,263.2,1844,266.4,1840.1,266.4"/>
	<path clip-path="url(#SVGID_2_)" d="M1693.5,329.2c-3.9,0-7-3.2-7-7.1c0-3.9,3.1-7.1,7-7.1c3.9,0,7,3.2,7,7.1
		C1700.5,326,1697.4,329.2,1693.5,329.2"/>
	<path clip-path="url(#SVGID_2_)" d="M1642,207.3c-3.9,0-7-3.2-7-7.1c0-3.9,3.1-7.1,7-7.1c3.9,0,7,3.2,7,7.1
		C1649.1,204.1,1645.9,207.3,1642,207.3"/>
	<path clip-path="url(#SVGID_2_)" d="M1511.7,230.1c-3.9,0-7-3.2-7-7.1c0-3.9,3.1-7.1,7-7.1c3.9,0,7,3.2,7,7.1
		C1518.7,226.9,1515.6,230.1,1511.7,230.1"/>
	<path clip-path="url(#SVGID_2_)" d="M1823.9,167.9c-3.9,0-7-3.2-7-7.1c0-3.9,3.1-7.1,7-7.1c3.9,0,7,3.2,7,7.1
		C1830.9,164.8,1827.8,167.9,1823.9,167.9"/>
	<path clip-path="url(#SVGID_2_)" d="M1853.8,510.9c-3.9,0-7-3.2-7-7.1c0-3.9,3.1-7.1,7-7.1c3.9,0,7,3.2,7,7.1
		C1860.8,507.7,1857.7,510.9,1853.8,510.9"/>
	<path clip-path="url(#SVGID_2_)" d="M1766,445.6c-3.9,0-7-3.2-7-7.1c0-3.9,3.1-7.1,7-7.1c3.9,0,7,3.2,7,7.1
		C1773,442.4,1769.9,445.6,1766,445.6"/>
	<path clip-path="url(#SVGID_2_)" d="M1744.2,404.6c-3.9,0-7-3.2-7-7.1c0-3.9,3.1-7.1,7-7.1c3.9,0,7,3.2,7,7.1
		C1751.2,401.4,1748,404.6,1744.2,404.6"/>
	<path clip-path="url(#SVGID_2_)" d="M1676.2,406.8c-3.9,0-7-3.2-7-7.1c0-3.9,3.1-7.1,7-7.1c3.9,0,7,3.2,7,7.1
		C1683.3,403.6,1680.1,406.8,1676.2,406.8"/>
	<path clip-path="url(#SVGID_2_)" d="M1895.3,536c-3.9,0-7-3.2-7-7.1c0-3.9,3.1-7.1,7-7.1c3.9,0,7,3.2,7,7.1
		C1902.3,532.8,1899.2,536,1895.3,536"/>
	<path clip-path="url(#SVGID_2_)" d="M1746.7,946.1c-3.9,0-7-3.2-7-7.1c0-3.9,3.1-7.1,7-7.1c3.9,0,7,3.2,7,7.1
		C1753.8,942.9,1750.6,946.1,1746.7,946.1"/>
	
		<line clip-path="url(#SVGID_2_)" fill="none" stroke="#808080" stroke-width="2" stroke-miterlimit="10" x1="1870.2" y1="357.7" x2="1968.5" y2="424.4"/>
	<path clip-path="url(#SVGID_2_)" d="M1869.9,365.3c-3.9,0-7-3.2-7-7.1c0-3.9,3.1-7.1,7-7.1c3.9,0,7,3.2,7,7.1
		C1877,362.1,1873.8,365.3,1869.9,365.3"/>
	<g clip-path="url(#SVGID_2_)">
		<g>
			<path d="M1892.6,764.9c3.6,0,6.6-2.9,6.6-6.6c0-3.6-2.9-6.6-6.6-6.6c-3.6,0-6.6,2.9-6.6,6.6
				C1886,761.9,1888.9,764.9,1892.6,764.9"/>
		</g>
	</g>
</g>
</svg>
