<?xml version="1.0" encoding="utf-8"?>
<!-- Generator: Adobe Illustrator 18.1.1, SVG Export Plug-In . SVG Version: 6.00 Build 0)  -->
<svg version="1.1" id="Layer_1" xmlns="http://www.w3.org/2000/svg" xmlns:xlink="http://www.w3.org/1999/xlink" x="0px" y="0px"
	 viewBox="0 0 540.3 92.4" enable-background="new 0 0 540.3 92.4" xml:space="preserve">
<g>
	<g>
		<path d="M127.5,83.6l-1.1,7.5h-12.2l10.9-60.4h12.9L149,91.1h-12.2l-1.1-7.5H127.5z M128.9,74h5.6l-2.7-21.4L128.9,74z"/>
		<path d="M152.4,30.7h12.4v49.1h12.2l-2.1,11.2h-22.5V30.7z"/>
		<path d="M180.7,30.7h12.4v49.1h12.2l-2.1,11.2h-22.5V30.7z"/>
		<path d="M243.2,30.7l3,11.2h-8.1v49.1h-12.3V42h-8.1l3.2-11.2H243.2z"/>
		<path d="M280.8,91.1h-12.3V66.9h-6.6v24.2h-12.3V30.7h12.3v25.8h6.6V30.7h12.3V91.1z"/>
		<path d="M285.8,30.7h12.1v60.4h-12.1V30.7z"/>
		<path d="M302.9,30.7h11.5l6.2,24.2V30.7h12.4v60.4h-12.4L314,65.9v25.2h-11.2V30.7z"/>
		<path d="M337.9,38c0-4.4,2.4-7.3,7.2-7.3h17.2l2.1,11.2h-13.2c-0.8,0-1.1,0.4-1.1,1.2v35.8c0,0.8,0.3,1.2,1.1,1.2h5.5V56.3h11.7
			v34.8h-21.1c-6.9,0-9.4-2.7-9.4-9.3V38z"/>
		<path d="M375.9,91.1l-2.2-11.2h13c1.1,0,1.4-0.3,1.4-1.3v-11c0-1.7-0.6-1.7-2.2-1.7h-6.2c-3.6,0-6.7-0.8-6.7-6.8V38.5
			c0-4.7,2.5-7.8,8.2-7.8h16.7l2.1,11.2h-13.7c-1,0-1.5,0.4-1.5,1.3v11c0,1.2,0.6,1.6,1.8,1.6h7.6c3.8,0,6,1.7,6,6.2v19.9
			c0,6.7-2.3,9.2-9.2,9.2H375.9z"/>
	</g>
	<path fill="#F6971F" d="M446.3,81.8c0,6.7-2.5,9.3-9.4,9.3h-21.4V30.7h23.7c4.7,0,7.2,2.9,7.2,7.3V81.8z M427.5,41.3v39.2h5.7
		c1,0,1.2-0.3,1.2-1.2V42.5c0-0.8-0.3-1.2-1.1-1.2H427.5z"/>
	<path fill="#F6971F" d="M462.3,83.6l-1.1,7.5H449l10.9-60.4h12.9l10.9,60.4h-12.2l-1.1-7.5H462.3z M463.6,74h5.6l-2.8-21.4
		L463.6,74z"/>
	<path fill="#F6971F" d="M505.9,30.7l3,11.2h-8.1v49.1h-12.3V42h-8.1l3.2-11.2H505.9z"/>
	<path fill="#F6971F" d="M518.8,83.6l-1.1,7.5h-12.2l10.9-60.4h12.9l10.9,60.4h-12.2l-1.1-7.5H518.8z M520.2,74h5.6L523,52.6
		L520.2,74z"/>
	<path d="M17.8,70.1L0,88v1.3c0,1.7,1.4,3.1,3.1,3.1h18.4c1.7,0,3.1-1.4,3.1-3.1V71.7l-2,1.3L17.8,70.1z"/>
	<path fill="#F6971F" d="M21.5,50.2H3.1c-1.7,0-3.1,1.4-3.1,3.1v27.4L17.5,64l5.9,3.8l1.2-0.7V53.2C24.5,51.6,23.2,50.2,21.5,50.2z"
		/>
	<path fill="#F6971F" d="M48.6,28.5H30.1c-1.7,0-3.1,1.4-3.1,3.1v34l8.5-5l11,19l5.1-12.8V31.6C51.6,29.9,50.3,28.5,48.6,28.5z"/>
	<path fill="#F6971F" d="M77.7,0H59.3c-1.7,0-3.1,1.4-3.1,3.1v52.2l4.5-11.5l6,5.2l14-20.8V3.1C80.8,1.4,79.4,0,77.7,0z"/>
	<path d="M106.1,28.5H87.6c-1.3,0-2.4,0.8-2.8,1.9l4.6,3l3.7-3.8l0.3,5.4l-5,4.3l-3.8-3.6v52.3c0,1.7,1.4,3.1,3.1,3.1h18.4
		c1.7,0,3.1-1.4,3.1-3.1V31.6C109.1,29.9,107.8,28.5,106.1,28.5z"/>
	<path d="M33.1,66l-6,4v18.2c0,1.7,1.4,3.1,3.1,3.1h18.4c1.7,0,3.1-1.4,3.1-3.1v-11l-5.2,13.7L33.1,66z"/>
	<path d="M61.6,50.9L56.2,65v23.2c0,1.7,1.4,3.1,3.1,3.1h18.4c1.7,0,3.1-1.4,3.1-3.1V36L68,57L61.6,50.9z"/>
</g>
</svg>
