<?xml version="1.0" encoding="utf-8"?>
<!-- Generator: Adobe Illustrator 18.1.1, SVG Export Plug-In . SVG Version: 6.00 Build 0)  -->
<svg version="1.1" id="Layer_1" xmlns="http://www.w3.org/2000/svg" xmlns:xlink="http://www.w3.org/1999/xlink" x="0px" y="0px"
	 viewBox="0 0 292.3 50" enable-background="new 0 0 292.3 50" xml:space="preserve">
<g>
	<g>
		<path fill="#FFFFFF" d="M69,45.2l-0.6,4.1h-6.6l5.9-32.7h7l5.9,32.7H74l-0.6-4.1H69z M69.7,40h3l-1.5-11.6L69.7,40z"/>
		<path fill="#FFFFFF" d="M82.4,16.6h6.7v26.6h6.6l-1.1,6.1H82.4V16.6z"/>
		<path fill="#FFFFFF" d="M97.7,16.6h6.7v26.6h6.6l-1.1,6.1H97.7V16.6z"/>
		<path fill="#FFFFFF" d="M131.6,16.6l1.6,6.1h-4.4v26.6h-6.7V22.7h-4.4l1.7-6.1H131.6z"/>
		<path fill="#FFFFFF" d="M151.9,49.3h-6.7V36.2h-3.6v13.1H135V16.6h6.7v14h3.6v-14h6.7V49.3z"/>
		<path fill="#FFFFFF" d="M154.6,16.6h6.5v32.7h-6.5V16.6z"/>
		<path fill="#FFFFFF" d="M163.8,16.6h6.2l3.3,13.1V16.6h6.7v32.7h-6.7l-3.5-13.7v13.7h-6V16.6z"/>
		<path fill="#FFFFFF" d="M182.8,20.6c0-2.4,1.3-4,3.9-4h9.3l1.1,6.1H190c-0.5,0-0.6,0.2-0.6,0.6v19.4c0,0.4,0.1,0.6,0.6,0.6h3V30.4
			h6.4v18.8h-11.4c-3.7,0-5.1-1.4-5.1-5V20.6z"/>
		<path fill="#FFFFFF" d="M203.3,49.3l-1.2-6.1h7c0.6,0,0.8-0.2,0.8-0.7v-5.9c0-0.9-0.3-0.9-1.2-0.9h-3.4c-1.9,0-3.6-0.5-3.6-3.7
			V20.8c0-2.6,1.4-4.2,4.4-4.2h9l1.1,6.1h-7.4c-0.5,0-0.8,0.2-0.8,0.7v5.9c0,0.7,0.3,0.9,1,0.9h4.1c2.1,0,3.2,0.9,3.2,3.3v10.8
			c0,3.6-1.3,5-5,5H203.3z"/>
	</g>
	<path fill="#FFFFFF" d="M241.4,44.2c0,3.6-1.4,5-5.1,5h-11.6V16.6h12.8c2.6,0,3.9,1.6,3.9,4V44.2z M231.2,22.3v21.2h3.1
		c0.5,0,0.6-0.2,0.6-0.7V23c0-0.4-0.1-0.6-0.6-0.6H231.2z"/>
	<path fill="#FFFFFF" d="M250.1,45.2l-0.6,4.1h-6.6l5.9-32.7h7l5.9,32.7h-6.6l-0.6-4.1H250.1z M250.8,40h3l-1.5-11.6L250.8,40z"/>
	<path fill="#FFFFFF" d="M273.7,16.6l1.6,6.1h-4.4v26.6h-6.7V22.7h-4.4l1.7-6.1H273.7z"/>
	<path fill="#FFFFFF" d="M280.6,45.2l-0.6,4.1h-6.6l5.9-32.7h7l5.9,32.7h-6.6l-0.6-4.1H280.6z M281.4,40h3l-1.5-11.6L281.4,40z"/>
	<path fill="#FFFFFF" d="M9.6,37.9L0,47.6v0.7C0,49.3,0.7,50,1.7,50h10c0.9,0,1.7-0.7,1.7-1.7v-9.6l-1.1,0.7L9.6,37.9z"/>
	<path fill="#FFFFFF" d="M11.6,27.1h-10c-0.9,0-1.7,0.7-1.7,1.7v14.8l9.5-9l3.2,2.1l0.6-0.4v-7.5C13.3,27.9,12.5,27.1,11.6,27.1z"/>
	<path fill="#FFFFFF" d="M26.3,15.4h-10c-0.9,0-1.7,0.7-1.7,1.7v18.4l4.6-2.7L25.2,43l2.7-6.9V17.1C27.9,16.2,27.2,15.4,26.3,15.4z"
		/>
	<path fill="#FFFFFF" d="M42,0h-10c-0.9,0-1.7,0.7-1.7,1.7v28.2l2.5-6.2l3.3,2.8l7.6-11.3V1.7C43.7,0.7,42.9,0,42,0z"/>
	<path fill="#FFFFFF" d="M57.4,15.4h-10c-0.7,0-1.3,0.4-1.5,1.1l2.5,1.6l2-2.1l0.1,2.9l-2.7,2.3l-2-1.9v28.3c0,0.9,0.7,1.7,1.7,1.7
		h10c0.9,0,1.7-0.7,1.7-1.7V17.1C59,16.2,58.3,15.4,57.4,15.4z"/>
	<path fill="#FFFFFF" d="M17.9,35.7l-3.3,2.2v9.8c0,0.9,0.7,1.7,1.7,1.7h10c0.9,0,1.7-0.7,1.7-1.7v-6l-2.8,7.4L17.9,35.7z"/>
	<path fill="#FFFFFF" d="M33.3,27.5l-2.9,7.6v12.5c0,0.9,0.8,1.7,1.7,1.7h10c0.9,0,1.7-0.7,1.7-1.7V19.5l-6.9,11.4L33.3,27.5z"/>
</g>
</svg>
