<?xml version="1.0" encoding="utf-8"?>
<!-- Generator: Adobe Illustrator 18.1.1, SVG Export Plug-In . SVG Version: 6.00 Build 0)  -->
<svg version="1.1" id="Layer_1" xmlns="http://www.w3.org/2000/svg" xmlns:xlink="http://www.w3.org/1999/xlink" x="0px" y="0px"
	 viewBox="0 0 215.3 26.7" enable-background="new 0 0 215.3 26.7" xml:space="preserve">
<g>
	<path fill="#FFFFFF" d="M169.6,10l0.1-0.5h5.3c2.2,0,3.9,0.3,5,0.8c1.1,0.5,1.9,1.3,2.6,2.4s1,2.3,1,3.6c0,1.1-0.2,2.1-0.6,3.2
		c-0.4,1-0.8,1.8-1.3,2.5c-0.5,0.6-1.2,1.3-2.2,2c-1,0.7-2,1.3-3.2,1.7c-1.1,0.4-2.6,0.5-4.2,0.5h-7l0.2-0.5c0.6,0,1.1-0.1,1.3-0.2
		c0.3-0.1,0.6-0.3,0.7-0.6c0.2-0.3,0.5-1,0.8-2.1l2.9-10c0.2-0.8,0.3-1.4,0.3-1.9c0-0.3-0.1-0.6-0.3-0.7c-0.2-0.2-0.6-0.3-1.2-0.3
		H169.6z M173.9,10.5l-3.6,12.4c-0.3,0.9-0.4,1.5-0.4,1.7c0,0.1,0,0.3,0.1,0.4s0.2,0.2,0.3,0.2c0.2,0.1,0.6,0.1,1,0.1
		c1.3,0,2.5-0.1,3.6-0.4c1.1-0.3,2-0.7,2.7-1.2c1-0.8,1.8-1.8,2.4-3.1s0.9-2.8,0.9-4.5c0-1.9-0.5-3.3-1.4-4.3
		c-0.9-0.9-2.2-1.4-4-1.4C175.2,10.5,174.6,10.5,173.9,10.5z"/>
	<path fill="#FFFFFF" d="M195.8,15.1l-2.4,8.3l-0.3,1.1c0,0.1,0,0.2,0,0.3c0,0.1,0,0.2,0.1,0.3c0.1,0.1,0.1,0.1,0.2,0.1
		c0.1,0,0.2-0.1,0.4-0.2c0.3-0.2,0.7-0.7,1.3-1.5l0.4,0.3c-0.6,0.9-1.1,1.5-1.7,1.9c-0.6,0.4-1.2,0.7-1.7,0.7
		c-0.3,0-0.6-0.1-0.8-0.3s-0.3-0.4-0.3-0.8c0-0.4,0.1-0.9,0.3-1.6l0.3-0.9c-1.1,1.4-2.1,2.4-3,2.9c-0.6,0.4-1.3,0.6-1.9,0.6
		c-0.6,0-1.1-0.2-1.5-0.7c-0.4-0.5-0.6-1.2-0.6-2c0-1.3,0.4-2.7,1.2-4.1c0.8-1.4,1.8-2.6,3-3.5c0.9-0.7,1.8-1,2.6-1
		c0.5,0,0.9,0.1,1.3,0.4c0.3,0.3,0.6,0.7,0.8,1.3l0.4-1.4L195.8,15.1z M191.4,15.7c-0.5,0-1.1,0.2-1.7,0.7c-0.8,0.7-1.6,1.7-2.2,3.1
		c-0.6,1.4-1,2.6-1,3.7c0,0.5,0.1,1,0.4,1.3c0.3,0.3,0.6,0.5,1,0.5c0.9,0,1.8-0.7,2.9-2c1.4-1.7,2.1-3.5,2.1-5.4
		c0-0.7-0.1-1.2-0.4-1.5C192.3,15.9,191.9,15.7,191.4,15.7z"/>
	<path fill="#FFFFFF" d="M203.1,12.1l-1,3.3h1.9l-0.2,0.8h-1.9l-2.1,7.2c-0.2,0.8-0.3,1.3-0.3,1.5c0,0.1,0,0.3,0.1,0.3
		c0.1,0.1,0.1,0.1,0.2,0.1c0.2,0,0.5-0.1,0.8-0.4c0.2-0.2,0.6-0.7,1.3-1.5l0.4,0.3c-0.8,1.1-1.5,1.9-2.1,2.3
		c-0.5,0.3-0.9,0.5-1.4,0.5c-0.4,0-0.6-0.1-0.9-0.3c-0.2-0.2-0.3-0.5-0.3-0.9c0-0.4,0.1-1.1,0.4-2l2.1-7.1h-1.9l0.1-0.5
		c0.9-0.2,1.7-0.6,2.2-1.1c0.6-0.5,1.3-1.3,2-2.5H203.1z"/>
	<path fill="#FFFFFF" d="M215.3,15.1l-2.4,8.3l-0.3,1.1c0,0.1,0,0.2,0,0.3c0,0.1,0,0.2,0.1,0.3c0.1,0.1,0.1,0.1,0.2,0.1
		c0.1,0,0.2-0.1,0.4-0.2c0.3-0.2,0.7-0.7,1.3-1.5l0.4,0.3c-0.6,0.9-1.1,1.5-1.7,1.9c-0.6,0.4-1.2,0.7-1.7,0.7
		c-0.3,0-0.6-0.1-0.8-0.3s-0.3-0.4-0.3-0.8c0-0.4,0.1-0.9,0.3-1.6l0.3-0.9c-1.1,1.4-2.1,2.4-3,2.9c-0.6,0.4-1.3,0.6-1.9,0.6
		c-0.6,0-1.1-0.2-1.5-0.7c-0.4-0.5-0.6-1.2-0.6-2c0-1.3,0.4-2.7,1.2-4.1c0.8-1.4,1.8-2.6,3-3.5c0.9-0.7,1.8-1,2.6-1
		c0.5,0,0.9,0.1,1.3,0.4c0.3,0.3,0.6,0.7,0.8,1.3l0.4-1.4L215.3,15.1z M210.9,15.7c-0.5,0-1.1,0.2-1.7,0.7c-0.8,0.7-1.6,1.7-2.2,3.1
		c-0.6,1.4-1,2.6-1,3.7c0,0.5,0.1,1,0.4,1.3c0.3,0.3,0.6,0.5,1,0.5c0.9,0,1.8-0.7,2.9-2c1.4-1.7,2.1-3.5,2.1-5.4
		c0-0.7-0.1-1.2-0.4-1.5C211.8,15.9,211.4,15.7,210.9,15.7z"/>
</g>
<g>
	<path fill="#FFFFFF" d="M2.7,26.2H0L10,0.5h3l9.9,25.7h-2.7l-3.1-8.1H5.7L2.7,26.2z M16.3,15.8L11.4,2.9L6.6,15.8H16.3z"/>
	<path fill="#FFFFFF" d="M36.4,26.2H24.8V0.5h2.5v23.2h9V26.2z"/>
	<path fill="#FFFFFF" d="M51.3,26.2H39.7V0.5h2.5v23.2h9V26.2z"/>
	<path fill="#FFFFFF" d="M58.6,26.2h-2.5V3H51V0.5h12.8V3h-5.1V26.2z"/>
	<path fill="#FFFFFF" d="M68.9,26.2h-2.5V0.5h2.5V12h12.2V0.5h2.5v25.7h-2.5V14.5H68.9V26.2z"/>
	<path fill="#FFFFFF" d="M90.9,26.2h-2.5V0.5h2.5V26.2z"/>
	<path fill="#FFFFFF" d="M112.8,23.1l-0.3-22.6h2.5v25.7h-3L97.8,3.5l0.3,22.6h-2.5V0.5h3L112.8,23.1z"/>
	<path fill="#FFFFFF" d="M128.8,13.9h16c-0.2,3.7-1.6,6.8-4,9.2c-2.5,2.4-5.5,3.6-9.1,3.6c-3.7,0-6.8-1.3-9.3-3.9s-3.7-5.8-3.7-9.6
		c0-1.8,0.3-3.5,1-5.1c0.7-1.6,1.7-3.1,3-4.4c1.3-1.3,2.7-2.2,4.2-2.8c1.5-0.6,3.3-0.9,5.1-0.9c2.5,0,4.7,0.6,6.7,1.8
		s3.6,2.9,4.8,5.2h-3.1c-1.2-1.5-2.5-2.7-3.9-3.4c-1.4-0.7-2.9-1.1-4.6-1.1c-3,0-5.4,1.1-7.5,3.2c-2,2.1-3.1,4.6-3.1,7.6
		c0,3.2,1,5.8,3,7.9c2,2.1,4.5,3.2,7.5,3.2c2.4,0,4.5-0.8,6.3-2.3c1.9-1.5,3.1-3.5,3.6-5.9h-13V13.9z"/>
	<path fill="#FFFFFF" d="M146.8,18.8h2.4c0,1.6,0.5,2.8,1.3,3.8c0.9,0.9,2,1.4,3.4,1.4c1.5,0,2.7-0.5,3.6-1.4
		c0.9-0.9,1.3-2.2,1.3-3.8c0-2.3-1.8-4.1-5.4-5.3c-0.3-0.1-0.5-0.2-0.6-0.2c-1.9-0.6-3.2-1.5-4.1-2.5c-0.8-1-1.2-2.3-1.2-3.9
		c0-2,0.6-3.7,1.9-5s2.9-2,4.9-2c1.9,0,3.5,0.6,4.6,1.8s1.8,2.9,1.9,5h-2.4c-0.1-1.4-0.5-2.5-1.3-3.2c-0.7-0.8-1.7-1.1-2.8-1.1
		c-1.3,0-2.3,0.4-3.1,1.2c-0.8,0.8-1.2,1.9-1.2,3.2c0,0.7,0.1,1.2,0.4,1.7s0.6,0.9,1.2,1.3c0.5,0.4,1.6,0.8,3.1,1.3
		c0.9,0.3,1.6,0.5,2,0.7c1.7,0.6,2.9,1.5,3.6,2.5c0.7,1,1.1,2.3,1.1,4c0,2.5-0.7,4.5-2,6c-1.4,1.5-3.2,2.3-5.4,2.3
		c-2.1,0-3.8-0.7-5.1-2.2C147.5,23.1,146.9,21.2,146.8,18.8z"/>
</g>
</svg>
