<?xml version="1.0" encoding="utf-8"?>
<!-- Generator: Adobe Illustrator 18.1.1, SVG Export Plug-In . SVG Version: 6.00 Build 0)  -->
<svg version="1.1" id="Layer_1" xmlns="http://www.w3.org/2000/svg" xmlns:xlink="http://www.w3.org/1999/xlink" x="0px" y="0px"
	 viewBox="0 0 11.7 25" enable-background="new 0 0 11.7 25" xml:space="preserve">
<path id="Facebook_5_" fill="#FFFFFF" d="M2.5,4.8c0,0.6,0,3.4,0,3.4H0v4.2h2.5V25h5.2V12.5h3.5c0,0,0.3-2,0.5-4.2
	c-0.5,0-3.9,0-3.9,0s0-2.4,0-2.9c0-0.4,0.6-1,1.1-1c0.6,0,1.7,0,2.8,0c0-0.6,0-2.6,0-4.4c-1.5,0-3.1,0-3.8,0C2.4,0,2.5,4.2,2.5,4.8z
	"/>
</svg>
