<?xml version="1.0" encoding="utf-8"?>
<!-- Generator: Adobe Illustrator 18.1.1, SVG Export Plug-In . SVG Version: 6.00 Build 0)  -->
<svg version="1.1" id="Layer_1" xmlns="http://www.w3.org/2000/svg" xmlns:xlink="http://www.w3.org/1999/xlink" x="0px" y="0px"
	 viewBox="0 0 24.3 25" enable-background="new 0 0 24.3 25" xml:space="preserve">
<g>
	<path fill="#FFFFFF" d="M15.8,0h-6C7.2,0,5.4,0.6,3.7,1.9C2.4,3.1,1.6,4.7,1.6,6.3c0,2.5,1.9,5.1,5.4,5.1c0.3,0,0.7,0,1-0.1l0,0.1
		c-0.1,0.3-0.3,0.7-0.3,1.2c0,1,0.5,1.6,0.9,2.1l0.1,0.1l-0.1,0c-1.4,0.1-4.1,0.3-6.1,1.5c-2.3,1.4-2.5,3.4-2.5,4
		C0,22.7,2.2,25,7,25c5.6,0,8.6-3.1,8.6-6.2c0-2.3-1.3-3.4-2.7-4.6l-1.2-0.9c-0.4-0.3-0.8-0.7-0.8-1.4c0-0.7,0.5-1.1,0.9-1.5l0,0
		c1.3-1,2.7-2.2,2.7-4.6c0-2.5-1.6-3.8-2.3-4.4h2c0,0,0,0,0.1,0l1.7-1.1c0,0,0.1-0.1,0.1-0.1C15.9,0,15.9,0,15.8,0z M8.6,23.6
		c-3.4,0-5.7-1.6-5.7-4c0-1.6,0.9-2.7,2.8-3.4c1.5-0.5,3.4-0.5,3.4-0.5c0.3,0,0.5,0,0.7,0c2.4,1.7,3.5,2.6,3.5,4.3
		C13.4,22.3,11.5,23.6,8.6,23.6z M8.6,10.5c-2.9,0-4.1-3.8-4.1-5.8c0-1,0.2-1.8,0.7-2.4c0.5-0.7,1.4-1.1,2.3-1.1
		c2.6,0,4.1,3.5,4.1,6c0,0.4,0,1.6-0.8,2.4C10.2,10.2,9.3,10.5,8.6,10.5z"/>
	<path fill="#FFFFFF" d="M24.2,11.7H21V8.5c0-0.1-0.1-0.1-0.1-0.1h-1.4c-0.1,0-0.1,0.1-0.1,0.1v3.1h-3.1c-0.1,0-0.1,0.1-0.1,0.1v1.4
		c0,0.1,0.1,0.1,0.1,0.1h3.1v3.2c0,0.1,0.1,0.1,0.1,0.1h1.4c0.1,0,0.1-0.1,0.1-0.1v-3.2h3.1c0.1,0,0.1-0.1,0.1-0.1v-1.4
		C24.3,11.7,24.2,11.7,24.2,11.7z"/>
</g>
</svg>
