<?xml version="1.0" encoding="utf-8"?>
<!-- Generator: Adobe Illustrator 18.1.1, SVG Export Plug-In . SVG Version: 6.00 Build 0)  -->
<svg version="1.1" id="Layer_1" xmlns="http://www.w3.org/2000/svg" xmlns:xlink="http://www.w3.org/1999/xlink" x="0px" y="0px"
	 viewBox="0 0 32 31.9" enable-background="new 0 0 32 31.9" xml:space="preserve">
<path fill="#FFFFFF" d="M31.2,11.5c1,1,1,2.7,0,3.8L17.4,29.9c-0.8,0.8-2.2,1.8-3.3,1.9c-3,0.2-8.8,0.1-11.9,0c-1.1,0-2.1-1-2.1-2.1
	c-0.1-3.9-0.2-12.3,0.6-13L15.3,0.4c1-1,3.7-0.1,4.7,0.9L31.2,11.5z M4.5,24.3c-0.9,0.9-0.9,2.3,0,3.2c0.9,0.9,2.3,0.9,3.2,0
	c0.9-0.9,0.9-2.3,0-3.2C6.8,23.5,5.4,23.5,4.5,24.3z"/>
</svg>
