<?xml version="1.0" encoding="utf-8"?>
<!-- Generator: Adobe Illustrator 18.1.1, SVG Export Plug-In . SVG Version: 6.00 Build 0)  -->
<svg version="1.1" id="Layer_1" xmlns="http://www.w3.org/2000/svg" xmlns:xlink="http://www.w3.org/1999/xlink" x="0px" y="0px"
	 viewBox="0 0 104.9 105.1" enable-background="new 0 0 104.9 105.1" xml:space="preserve">
<path fill="#F6981F" d="M67.1,102.6c-3.4,3.4-9,3.4-12.4,0L6.5,57.3c-2.7-2.5-5.9-7.3-6.1-11c-0.6-10-0.2-29.1,0.1-39.2
	c0.1-3.7,3.2-6.8,6.9-6.9c12.9-0.3,40.4-0.6,42.9,1.9l53.1,48.1c3.4,3.4,0.3,12-3.1,15.5L67.1,102.6z M24.8,14.9
	c-2.9-2.9-7.6-2.9-10.5,0c-2.9,2.9-2.9,7.6,0,10.5c2.9,2.9,7.6,2.9,10.5,0C27.7,22.5,27.7,17.8,24.8,14.9z"/>
</svg>
