<?xml version="1.0" encoding="utf-8"?>
<!-- Generator: Adobe Illustrator 18.1.1, SVG Export Plug-In . SVG Version: 6.00 Build 0)  -->
<svg version="1.1" id="Layer_1" xmlns="http://www.w3.org/2000/svg" xmlns:xlink="http://www.w3.org/1999/xlink" x="0px" y="0px"
	 viewBox="0 0 36.9 40" enable-background="new 0 0 36.9 40" xml:space="preserve">
<path fill="#603913" d="M35.8,7.9h-1.5V5.3C34.3,2.4,32,0,29.1,0H7.9C5,0,2.6,2.4,2.6,5.3v2.7H1.1C0.5,7.9,0,8.4,0,9v6.1
	c0,0.6,0.5,1.1,1.1,1.1h1.5v13.1c-0.6,0.5-1,1.3-1,2.1v2c0,1.6,1.3,2.9,2.9,2.9h0.4v2.9c0,0.5,0.4,0.8,0.8,0.8h3.9
	c0.5,0,0.8-0.4,0.8-0.8v-2.9h16.1v2.9c0,0.5,0.4,0.8,0.8,0.8h3.9c0.5,0,0.8-0.4,0.8-0.8v-2.9h0.4c1.6,0,2.9-1.3,2.9-2.9v-2
	c0-0.8-0.4-1.6-1-2.1V16.2h1.5c0.6,0,1.1-0.5,1.1-1.1V9C36.9,8.4,36.4,7.9,35.8,7.9z M31.1,8.4v12.9H19.9V8.4H31.1z M12.9,2.7H24
	c0.8,0,1.4,0.6,1.4,1.4c0,0.8-0.6,1.4-1.4,1.4H12.9c-0.8,0-1.4-0.6-1.4-1.4C11.5,3.4,12.1,2.7,12.9,2.7z M5.8,8.4H17v12.9H5.8V8.4z
	 M10.9,27.1c0,0.8-0.6,1.4-1.4,1.4H7.2c-0.8,0-1.4-0.6-1.4-1.4v-1.5c0-0.8,0.6-1.4,1.4-1.4h2.3c0.8,0,1.4,0.6,1.4,1.4V27.1z
	 M26.1,27.1v-1.5c0-0.8,0.6-1.4,1.4-1.4h2.3c0.8,0,1.4,0.6,1.4,1.4v1.5c0,0.8-0.6,1.4-1.4,1.4h-2.3C26.7,28.4,26.1,27.8,26.1,27.1z"
	/>
</svg>
