<?xml version="1.0" encoding="utf-8"?>
<!-- Generator: Adobe Illustrator 18.1.1, SVG Export Plug-In . SVG Version: 6.00 Build 0)  -->
<svg version="1.1" id="Layer_1" xmlns="http://www.w3.org/2000/svg" xmlns:xlink="http://www.w3.org/1999/xlink" x="0px" y="0px"
	 viewBox="0 0 23.2 25" enable-background="new 0 0 23.2 25" xml:space="preserve">
<path fill="#F6981F" d="M22.7,4.1c-0.4-0.4-0.8-0.5-1.3-0.5h-1.8V2.2c0-0.6-0.2-1.1-0.7-1.6C18.5,0.2,18,0,17.4,0h-0.9
	c-0.6,0-1.1,0.2-1.6,0.7c-0.4,0.4-0.7,1-0.7,1.6v1.3H8.9V2.2c0-0.6-0.2-1.1-0.7-1.6C7.8,0.2,7.3,0,6.7,0H5.8C5.2,0,4.7,0.2,4.2,0.7
	c-0.4,0.4-0.7,1-0.7,1.6v1.3H1.8c-0.5,0-0.9,0.2-1.3,0.5C0.2,4.5,0,4.9,0,5.4v17.9c0,0.5,0.2,0.9,0.5,1.3C0.9,24.8,1.3,25,1.8,25
	h19.6c0.5,0,0.9-0.2,1.3-0.5c0.4-0.4,0.5-0.8,0.5-1.3V5.4C23.2,4.9,23,4.5,22.7,4.1 M5.8,23.2h-4v-4h4V23.2z M5.8,18.3h-4v-4.5h4
	V18.3z M5.8,12.9h-4v-4h4V12.9z M5.5,6.6C5.4,6.5,5.4,6.4,5.4,6.3v-4c0-0.1,0-0.2,0.1-0.3c0.1-0.1,0.2-0.1,0.3-0.1h0.9
	c0.1,0,0.2,0,0.3,0.1C7.1,2,7.1,2.1,7.1,2.2v4c0,0.1,0,0.2-0.1,0.3C6.9,6.7,6.8,6.7,6.7,6.7H5.8C5.7,6.7,5.6,6.7,5.5,6.6 M11.2,23.2
	H6.7v-4h4.5V23.2z M11.2,18.3H6.7v-4.5h4.5V18.3z M11.2,12.9H6.7v-4h4.5V12.9z M16.5,23.2h-4.5v-4h4.5V23.2z M16.5,18.3h-4.5v-4.5
	h4.5V18.3z M16.5,12.9h-4.5v-4h4.5V12.9z M16.2,6.6c-0.1-0.1-0.1-0.2-0.1-0.3v-4c0-0.1,0-0.2,0.1-0.3c0.1-0.1,0.2-0.1,0.3-0.1h0.9
	c0.1,0,0.2,0,0.3,0.1c0.1,0.1,0.1,0.2,0.1,0.3v4c0,0.1,0,0.2-0.1,0.3c-0.1,0.1-0.2,0.1-0.3,0.1h-0.9C16.4,6.7,16.3,6.7,16.2,6.6
	 M21.4,23.2h-4v-4h4V23.2z M21.4,18.3h-4v-4.5h4V18.3z M21.4,12.9h-4v-4h4V12.9z"/>
</svg>
