<?xml version="1.0" encoding="utf-8"?>
<!-- Generator: Adobe Illustrator 18.1.1, SVG Export Plug-In . SVG Version: 6.00 Build 0)  -->
<svg version="1.1" id="Layer_1" xmlns="http://www.w3.org/2000/svg" xmlns:xlink="http://www.w3.org/1999/xlink" x="0px" y="0px"
	 viewBox="0 0 15.4 25" enable-background="new 0 0 15.4 25" xml:space="preserve">
<g>
	<path fill="#F6981F" d="M7.7,19c2.5,0,4.5-2,4.5-4.5v-10c0-2.5-2-4.5-4.5-4.5C5.2,0,3.2,2,3.2,4.5v10C3.2,17,5.2,19,7.7,19"/>
	<path fill="#F6981F" d="M14.9,11.8H14c-0.3,0-0.5,0.2-0.5,0.5v1.8c0,3.2-2.6,5.8-5.8,5.8c-3.2,0-5.8-2.6-5.8-5.8v-1.8
		c0-0.3-0.2-0.5-0.5-0.5H0.5c-0.3,0-0.5,0.2-0.5,0.5v1.8c0,3.8,3,7.2,6.7,7.6v1.3h-4c-0.3,0-0.5,0.2-0.5,0.5v0.9
		c0,0.3,0.2,0.5,0.5,0.5h9.9c0.3,0,0.5-0.2,0.5-0.5v-0.9c0-0.3-0.2-0.5-0.5-0.5h-4v-1.3c3.8-0.5,6.7-3.8,6.7-7.6v-1.8
		C15.4,12.1,15.2,11.8,14.9,11.8"/>
</g>
</svg>
