<?xml version="1.0" encoding="utf-8"?>
<!-- Generator: Adobe Illustrator 18.1.1, SVG Export Plug-In . SVG Version: 6.00 Build 0)  -->
<svg version="1.1" id="Layer_1" xmlns="http://www.w3.org/2000/svg" xmlns:xlink="http://www.w3.org/1999/xlink" x="0px" y="0px"
	 viewBox="0 0 25 25" enable-background="new 0 0 25 25" xml:space="preserve">
<path fill="#F6981F" d="M14.1,7.8l3.1,3.1l-6.3,6.3l-3.1-3.1L14.1,7.8z M24.5,7.3l-1.8-1.8l-0.8,0.8c-0.4,0.4-1,0.6-1.6,0.6
	c-1.2,0-2.2-1-2.2-2.2c0-0.6,0.2-1.2,0.6-1.6l0.8-0.8l-1.8-1.8c-0.7-0.7-1.9-0.7-2.7,0L0.5,15.1c-0.7,0.7-0.7,1.9,0,2.7l1.8,1.8
	l0.8-0.8c0.4-0.4,1-0.6,1.6-0.6c1.2,0,2.2,1,2.2,2.2c0,0.6-0.2,1.2-0.6,1.6l-0.8,0.8l1.8,1.8c0.7,0.7,1.9,0.7,2.7,0L24.5,9.9
	C25.2,9.2,25.2,8,24.5,7.3 M10.9,20.3l-6.3-6.3l9.4-9.4l6.3,6.3L10.9,20.3z"/>
</svg>
