<?xml version="1.0" encoding="utf-8"?>
<!-- Generator: Adobe Illustrator 18.1.1, SVG Export Plug-In . SVG Version: 6.00 Build 0)  -->
<svg version="1.1" id="Layer_1" xmlns="http://www.w3.org/2000/svg" xmlns:xlink="http://www.w3.org/1999/xlink" x="0px" y="0px"
	 viewBox="0 0 780 551" enable-background="new 0 0 780 551" xml:space="preserve">
<rect x="0" y="0" fill="#F6981F" width="780" height="550"/>
<g>
	<g>
		<rect x="41.6" y="545.3" fill-rule="evenodd" clip-rule="evenodd" fill="#F2F2F2" width="223.1" height="5.7"/>
		<rect x="41.6" y="425.8" fill-rule="evenodd" clip-rule="evenodd" fill="#F2F2F2" width="39.7" height="119.5"/>
		<rect x="87.5" y="470.9" fill-rule="evenodd" clip-rule="evenodd" fill="#F2F2F2" width="39.7" height="74.4"/>
		<rect x="133.3" y="496.1" fill-rule="evenodd" clip-rule="evenodd" fill="#F2F2F2" width="39.7" height="49.2"/>
		<rect x="179.2" y="473" fill-rule="evenodd" clip-rule="evenodd" fill="#F2F2F2" width="39.7" height="72.3"/>
		<rect x="225" y="493.6" fill-rule="evenodd" clip-rule="evenodd" fill="#F2F2F2" width="39.7" height="51.7"/>
	</g>
	<circle fill-rule="evenodd" clip-rule="evenodd" fill="#F2F2F2" cx="288.2" cy="488.3" r="10.7"/>
	<polygon fill-rule="evenodd" clip-rule="evenodd" fill="#F2F2F2" points="24.4,370.2 52.6,370.7 42.8,383.9 33,397 	"/>
	<path fill="#F2F2F2" d="M278.7,477l-80.2-59.7l-2.5-1.9l-2.1,2.4l-38.2,45L49.1,383.5l-2.2,2.9l-1.8,2.5l109.1,81.2l2.5,1.9
		l2.1-2.4l38.2-45l77.7,57.8C275.6,480.3,277,478.4,278.7,477z"/>
</g>
<polygon fill="#E0821B" points="281.4,47.7 223.8,52.7 199.8,41.4 255.3,35.8 "/>
<polygon fill="#E0821B" points="159,47.5 101.3,52.5 77.3,41.1 132.9,36.5 "/>
<polygon fill="#E0821B" points="403.8,47.9 346.2,52.9 322.2,41.6 377.7,34.9 "/>
</svg>
