<?xml version="1.0" encoding="utf-8"?>
<!-- Generator: Adobe Illustrator 18.1.1, SVG Export Plug-In . SVG Version: 6.00 Build 0)  -->
<svg version="1.1" id="Layer_1" xmlns="http://www.w3.org/2000/svg" xmlns:xlink="http://www.w3.org/1999/xlink" x="0px" y="0px"
	 viewBox="0 0 25.7 40" enable-background="new 0 0 25.7 40" xml:space="preserve">
<path fill="#F6981F" d="M25.7,12.8C25.6,5.7,19.9,0,12.8,0C5.7,0,0,5.7,0,12.8c0,6.1,9.6,22.4,12.2,26.8c0.1,0.2,0.4,0.4,0.7,0.4
	c0.3,0,0.5-0.1,0.7-0.4C16.1,35.3,25.7,18.9,25.7,12.8z M12.8,22.7c-5.5,0-9.9-4.5-9.9-9.9s4.5-9.9,9.9-9.9s9.9,4.5,9.9,9.9
	C22.7,18.3,18.3,22.7,12.8,22.7z"/>
</svg>
