<?xml version="1.0" encoding="utf-8"?>
<!-- Generator: Adobe Illustrator 18.1.1, SVG Export Plug-In . SVG Version: 6.00 Build 0)  -->
<svg version="1.1" id="Layer_1" xmlns="http://www.w3.org/2000/svg" xmlns:xlink="http://www.w3.org/1999/xlink" x="0px" y="0px"
	 viewBox="0 0 15 15" enable-background="new 0 0 15 15" xml:space="preserve">
<g>
	<g>
		<path fill="#808080" d="M0.1,5.9l4.5,4.5L15,15L10.4,4.6L5.9,0.1C5.7,0,5.4,0,5.2,0.1C5,0.3,5,0.7,5.2,0.9l4.4,4.4l2.7,6.1
			l-0.9,0.9L5.2,9.6L0.9,5.2C0.7,5,0.3,5,0.1,5.2C0,5.4,0,5.7,0.1,5.9z"/>
		<path fill="#808080" d="M6.5,8L2.3,3.8c-0.2-0.2-0.5-0.2-0.7,0C1.4,4,1.4,4.3,1.6,4.5l4.2,4.2C5.9,8.8,6,8.8,6.1,8.8
			s0.3,0,0.4-0.1C6.7,8.5,6.7,8.2,6.5,8z"/>
		<path fill="#808080" d="M7.6,6.9L3.4,2.7c-0.2-0.2-0.5-0.2-0.7,0c-0.2,0.2-0.2,0.5,0,0.7l4.2,4.2C7,7.7,7.1,7.7,7.2,7.7
			c0.1,0,0.3,0,0.4-0.1C7.8,7.4,7.8,7.1,7.6,6.9z"/>
		<path fill="#808080" d="M8.7,5.8L4.5,1.6C4.3,1.4,4,1.4,3.8,1.6c-0.2,0.2-0.2,0.5,0,0.7L8,6.5c0.1,0.1,0.2,0.1,0.4,0.1
			s0.3,0,0.4-0.1C8.9,6.3,8.9,6,8.7,5.8z"/>
	</g>
</g>
</svg>
